<svg width="827" height="1441" viewBox="0 0 827 1441" xmlns="http://www.w3.org/2000/svg" xmlns:xlink="http://www.w3.org/1999/xlink"><defs><path id="a" d="M0 0h827v1441H0z"/></defs><g fill="none" fill-rule="evenodd"><mask id="b" fill="#fff"><use xlink:href="#a"/></mask><use fill="#FFF" xlink:href="#a"/><g mask="url(#b)"><path fill="#FFF" d="M-.433 1469V-109h1080v1578z"/><path d="M449.56 715.858v-35.861h-18v35.861h18zm18-35.863h36v-53.796h-18.002v17.932H467.56v35.864zm-36-107.59v35.863h17.998v-35.863H431.56zm17.998-53.796v-35.863h-18v35.863h18zm197.547 932.454v-17.933H611.56v17.933h35.545zM449.558 1307.61v-35.863h-18v35.863h18zm-17.999 53.796v35.861h18v-35.862h-18zm36 107.59h36V1415.2h-18v17.931h-18v35.864zm-18-1542.137v-35.852h-18v35.852h18zm180 555.888h-18v53.795h18.002v17.931h17.544v-53.795h-17.546v-17.931zm17.546-304.841H593.56v89.66h-18v35.863h-36.002V411.02h18v17.931h54.001v-35.863h35.545V177.905zM629.559-37.277h-18V-73.14h-54v179.317h36.002V34.45h17.998V16.518h35.546v-35.863h-17.546v-17.932zm17.546-35.865v-17.932H629.56v17.932h17.544zm0 1040.047H593.56v89.66h-18v35.863h-36.002v107.591h18v17.931h54.001v-35.863h35.545V966.905zm0-251.046v-17.932H629.56v17.932h17.544zm-17.546 555.887h-18v53.795h18.002v17.931h17.544v-53.794h-17.546v-17.932zm-72-1362.82v-17.92h-36v17.92h36zm72 842.797h-18V715.86h-54v179.318h36.002V823.45h17.998v-17.93h35.546v-35.863h-17.546v-17.933zm-180 466.227h72v-35.863h-18v17.932h-54v17.931zm72-896.59h-18v17.931h-54v17.932h-18v17.932h36v-17.932h54V321.36zm-36 125.522h-18v161.386h36v-17.932h18v107.59h36v-35.864h36.002v-53.794h17.998v-17.932h-36v-35.861h-18v-35.866h-36v35.866h-18v-53.798h36v-17.931h36v-17.933h-36v-17.93h-18v35.863h-36v-35.864zm54-215.18h-36v53.795h18V249.63h18V231.7zm-90 197.248h72v-35.863h-18v17.932h-54v17.931zm180 35.863v-17.932h-35.998v17.932h35.998zm-108-520.02V-73.14h-36v17.932h36zm-90 53.794h18v17.93h-18V34.45h36v17.932h54V34.45h-18V16.518h36v-35.863h-72v-17.932h-18v17.932h-18v17.932zm198 1255.228v-17.933h-35.998v17.933h35.998zm-198-968.318h54v-71.728h90v-35.864h-18V142.04h-72v-17.93h54V88.246h-36V70.313h-18v17.933h-36V249.63h-18v35.866zm180-161.388v17.931h35.546V70.313H629.56v53.796h-18zm-90 986.251h-18v17.932h-54v17.931h-18v17.933h36v-17.933h54v-35.863zm-36 125.522h-18v161.386h36v-17.931h18V1469h36v-17.937h36.002v-53.795h17.998v-17.931h-36v-35.862h-18v-35.866h-36v35.866h-18v-53.797h36v-17.932h36v-17.931h-36v-17.933h-18v35.864h-36v-35.864zm54-215.18h-36v53.795h18v-35.866h18v-17.93zm107.546-358.64V644.13H611.56v17.933h35.545zm-125.546 71.73V715.86h-36v17.932h36zm-90 53.795h18v17.932h-18v17.931h36v17.932h54V823.45h-18v-17.93h36v-35.863h-72v-17.933h-18v17.933h-18v17.93zm180 125.522v17.932h35.546v-71.728H629.56v53.796h-18zm-180 161.388h54v-71.727h90v-35.865h-18V931.04h-72v-17.93h54v-35.863h-36v-17.933h-18v17.933h-36v161.385h-18v35.866zm576.006-251.04v71.727h72.002V536.55H935.563v71.727h-72.002V966.91h72.002V823.458h72.002zm72.002-430.368v-71.72h-72.002v71.72h72.002zm0 860.73v-215.18H935.563v143.453h-72.002v143.455h144.004v-71.727h72.002zm0-1147.638H935.563V34.453h-72.002v215.182h216.006V106.18zm0-143.453v-71.722H935.563v71.722h144.004zM647.105 536.532h108.457v-71.727h-72.001v-35.863h-36.456v107.59zm.143 179.32h180.316v-71.73h-36.002v-71.727H647.105l.143 143.458zm72.313-537.955v-35.863h-72.002v35.863h72.002zm0 681.41v-71.731h36.001v-35.86h-72.001v107.591h36zm-36-932.459v-35.843h-36.457v35.843h36.457zm108.001 179.318V34.439h71.988v-143.433H719.56v215.16h72.002zm71.988 394.502V142.034h-71.986v358.634h71.986zM683.56 357.214V321.35h72.002v-71.726H647.105v143.454h72.456v-35.864h-36zm72.002 537.956v215.181h36v35.864h71.988V823.444h-35.983v71.726h-72.005zm-72-824.867v-107.59h-36.457v107.59h36.457zm-.001 860.73v35.864h-36.456v35.863h72.456v-71.726h-36zm144.003 537.953v-71.723h-36.002v-71.73h-72.001v71.73h-36v-107.595h72.001v-35.863h72.002v-35.863h-72.002v-35.864h-36.001v71.727h-72.456V1469l180.459-.014zM683.56 1074.488v35.863h-36.456v35.864h72.456v-71.727h-36zM184.065-28.307h4.5v-13.448h-4.5v8.966h-13.5v13.448h-4.501v-4.483h-4.5v13.45h4.5v4.482h4.5v-8.965h4.5v-4.484h9s-.001-8.967.001-8.966zm-63-53.795h-4.5v8.966h13.5v-17.932h22.5v-8.966h-4.5V-109h-27v26.898zm22.499-4.483h-9v13.45h4.5v-8.967h4.5v-4.483zm-4.5 31.38v-8.965h-4.5v4.483h-13.499v4.483h-9v4.482h13.5v-4.482h13.5zm0 8.967h-4.5v4.483h-13.499v4.483h18v-8.966zM94.066-73.136v-4.482h-4.5v4.482h-4.5v4.482h-9v4.484h13.5v17.932h-4.5v4.483h9v-4.483h4.5v-13.45h18v-8.966h-18v-4.482h-4.5zm94.499 71.727h13.498v17.932h13.501V-5.892h-4.5v-4.482h-4.5v-4.483h-18V-1.41zm9-35.863c-.003 0 0-4.483-.002-4.483h-4.498v8.966h4.5v4.482h4.499v-8.965h-4.5zm4.498-17.932h-4.5v-4.483h-4.498v8.965h17.999v-4.482h-4.5v-4.483h9v-8.966h-13.501v13.449zm13.501 17.932v-8.966h-9v8.966h9zm-4.5 17.93v-4.482h-13.5v4.483h13.5zm-99-17.93h-4.5v4.483h-4.499v4.482h-9v4.483h18v-13.448zm-8.999 44.829h18V-1.41h-4.5v4.483h-4.5v-13.448h-4.5v-4.483h-4.5v4.483h-4.5v8.965h9v4.483h-4.5v4.483zM85.066-109v8.966h-4.5V-109h-4.5v8.966h-9v8.965c3.377.003 19.501 0 22.5.001v4.482h4.5v-4.482h8.892v4.482h9.107V-109H85.066zm4.5 85.176v-8.965h-4.5v8.965h4.5zm-27 13.45v4.482h9v-4.482h9v-4.483h-13.5v4.483h-4.5zm-9 0h-13.5V3.074h4.5V-1.41h9v-8.965zm13.5-71.728v-4.483h-22.5v8.966h18v4.483h18v-4.483h-9v-4.483h-4.5zm-31.5 22.415v4.483h18v8.966h13.5v8.966h9v17.93h4.5v-22.413h-4.5v-8.967h-4.5v-8.965h-13.5v-4.483h9v-4.483h-13.5v4.483h-4.5v4.483h-13.5zm-18 49.313h18v-8.967h18v-4.483h13.5v-4.483h-4.5v-4.482h-4.5v-4.483h-4.5v-4.483h-9v-4.483h-13.5v-4.484h-8.999v-4.482h-4.5v-4.483h-4.5v-4.483h-9V3.074h13.5v-13.448zm45-94.143V-109h-18v13.448h9v-8.964l9-.001zm-22.5 40.347v-8.966h-4.5v-4.482h-18v4.482h9.001v8.966h13.5zM26.567-82.102h9v-17.932h-9v4.482h4.5v8.967h-4.5v4.483zm-4.5-13.45V-109h-9v13.448h9zm-13.5 4.483v-8.965h-9v13.448h9v-4.483zm0 17.933v-8.966h-4.5v8.966h-4.5v4.482h13.5v-4.482h-4.5zm121.498 49.312v-8.965h-4.5V7.557h9V3.074h4.5v26.898h9v-8.966h9V7.556h4.5V3.075h-9v-8.966h-4.5v-8.965h-9v8.965h-4.5v-13.45h8.999v-4.482h9v-4.483h-9v-4.482h-4.5v8.965h-9zm35.999-4.483v-4.482h-9v4.482h9zm-40.5 53.796h9v-13.45h-4.5v4.484h-4.5v8.966zm-22.499 8.965h18V25.49h-4.5v-4.483h-9v-4.483h-9V12.04h-9V3.074h-18V-1.41h-4.5v4.483h-4.499v4.483h-4.5v4.482h-9v4.484h-9v8.966h-4.5v4.483h18v4.482h9v-4.482h9V43.42h9v4.484h22.5s-.002-13.45 0-13.45zM35.567 74.801v-8.966h-9v8.966h9zm0 13.449v-4.483h-13.5v4.483h13.5zm161.996-71.727V12.04h-4.498V7.557h-4.5v4.482h-18v4.483h-9v4.484h27v8.966h-4.5v4.482h9v-17.93h4.498zm-22.499 31.38h9.001v4.484h4.5v-13.45h-13.5v8.967zm36-17.931v-4.483h-13.5v4.483h13.5zm4.5 13.448v-4.483h-18v4.483h18zm-4.5 35.864v4.483h-13.5v4.483h18V74.8h-9v4.484h4.5zm-26.999-8.966c-.002-.001 0 4.483-.001 4.483h-4.5v4.483h18v-4.483h-9v-4.483h-4.499zm13.498-13.449h-17.999v8.966h22.499v4.483h9v-4.483h4.501v-8.966h-9v-4.482h-9v4.482zm-26.998 13.449h-4.5v13.45h-4.5v4.482h9V70.318zm-22.5 8.966h9V61.352h4.5V56.87h9v8.966h4.5V52.387h-4.5v-4.483h-4.501V43.42h-4.5v-8.966h-13.5v44.83zm-4.501-22.415v-8.965h-18V43.42h-4.499v4.484h-4.5v4.483h4.5v4.482h-9v8.966h4.5v-4.483h9v4.483h13.5v-4.483h-4.5V56.87h8.999zm0 26.898v-8.966h-9v-4.483h-4.5V74.8h-8.999v13.45h9v-4.483h13.499zM107.566 56.87v-4.482h-22.5v4.482h22.5zM85.065 88.25v-4.483h-9v4.483h9zm-18-4.483v-4.483h-8.999v4.483h9zm-13.498-8.966h26.998v-4.483h13.5v-4.483h-4.5v-4.483h-13.5V56.87h-9v-8.965h-4.499v4.483h-9V43.42h-4.5v-4.483h-9V88.25h13.5V74.8zm-36-67.244h-4.5v4.482h-9V7.557h-4.5v13.45h18V7.556zm18 0V3.074h-13.5v4.483h13.5zm-4.5 26.897V21.006h-9v13.448h9zm-13.5-4.482v-4.483h-9v4.483h9zm-13.5 26.897h4.5v4.483h9V56.87h13.5v-8.965h-13.5V43.42h-4.5v-4.483h-9v4.483h-4.5v22.415h4.5v-8.966zm13.5 26.898v-4.483h4.5v-4.483h-9v-4.483h-9v8.966h-4.5v8.966h9v-4.483h9zm121.497-44.83v-4.483h-9v4.483h9zM89.566-1.409v-4.483h-4.5v4.483h4.5zm103.499-98.625h-9v8.966h-9v4.483h-4.5v-8.967h4.5v-4.482h-18v22.416h-4.5v8.965h-9.001v26.898h4.5v4.483h13.501v-8.966h9v-13.45h9v-8.966h17.998v-8.965h13.5v-4.483h4.501v-13.45h-4.5v-4.482h-9V-109h-9v8.966zm-18 107.59V3.075h-4.5v4.483h4.5zm13.5-53.795v-8.965h-4.5v8.965h4.5zm-18 80.693v-4.482h-4.5v4.482h4.5zM62.566-91.069v-4.483h-4.5v4.483h4.5zm44.999 13.45v-4.483h-4.5v4.483h4.5zm-89.999-8.966v-4.483h-4.5v4.483h4.5zm89.999 40.346v-4.483h-4.5v4.483h4.5zm76.499 49.313v-8.966h-4.5v8.966h4.5zm-62.999-17.931v-8.966h-4.5v8.966h4.5zm-22.5 0v-4.483h-9v4.483h9zm4.5 80.692v-4.483h-4.5v4.483h4.5zm80.999 22.415v-4.483h-4.5v4.483h4.5zm-72-4.483v-8.965h-4.5v8.965h4.5zm-13.499 0v-4.483h-4.5v-4.483h-4.5V88.25h13.5v-4.483h-4.5zM35.567 43.42v-4.483h-4.5v4.483h4.5zm148.498 125.523h4.5v-13.448h-4.5v8.966h-13.5v13.449h-4.501v-4.484h-4.5v13.45h4.5v4.482h4.5v-8.965h4.5v-4.483h9s-.001-8.968.001-8.967zm-63-53.795h-4.5v8.966h13.5v-17.932h22.5v-8.966h-4.5V88.25h-27v26.898zm22.499-4.483h-9v13.45h4.5v-8.967h4.5v-4.483zm-4.5 31.38v-8.965h-4.5v4.483h-13.499v4.483h-9v4.483h13.5v-4.483h13.5zm0 8.967h-4.5v4.483h-13.499v4.483h18v-8.966zm-44.998-26.898v-4.482h-4.5v4.482h-4.5v4.482h-9v4.484h13.5v17.932h-4.5v4.483h9v-4.483h4.5v-13.45h18v-8.966h-18v-4.482h-4.5zm94.499 71.727h13.498v17.932h13.501v-22.415h-4.5v-4.482h-4.5v-4.483h-18v13.448zm9-35.863c-.003 0 0-4.483-.002-4.483h-4.498v8.966h4.5v4.482h4.499v-8.965h-4.5zm4.498-17.932h-4.5v-4.483h-4.498v8.966h17.999v-4.483h-4.5v-4.483h9v-8.966h-13.501v13.449zm13.501 17.932v-8.966h-9v8.966h9zm-4.5 17.932v-4.483h-13.5v4.483h13.5zm-99-17.932h-4.5v4.483h-4.499v4.482h-9v4.483h18v-13.448zm-8.999 44.829h18v-8.966h-4.5v4.483h-4.5v-13.448h-4.5v-4.483h-4.5v4.483h-4.5v8.965h9v4.483h-4.5v4.483zM85.066 88.25v8.966h-4.5V88.25h-4.5v8.966h-9v8.965c3.377.003 19.501 0 22.5.001v4.483h4.5v-4.483h8.892v4.483h9.107V88.25H85.066zm4.5 85.176v-8.965h-4.5v8.965h4.5zm-27 13.45v4.482h9v-4.482h9v-4.483h-13.5v4.483h-4.5zm-9 0h-13.5v13.448h4.5v-4.483h9v-8.965zm13.5-71.728v-4.483h-22.5v8.966h18v4.483h18v-4.483h-9v-4.483h-4.5zm-31.5 22.415v4.483h18v8.966h13.5v8.966h9v17.932h4.5v-22.415h-4.5v-8.966h-4.5v-8.966h-13.5v-4.483h9v-4.483h-13.5v4.483h-4.5v4.483h-13.5zm-18 49.313h18v-8.966h18v-4.484h13.5v-4.483h-4.5v-4.482h-4.5v-4.483h-4.5v-4.483h-9v-4.483h-13.5v-4.483h-8.999v-4.483h-4.5v-4.483h-4.5v-4.483h-9v67.244h13.5v-13.448zm45-94.143V88.25h-18v13.448h9v-8.964l9-.001zm-22.5 40.347v-8.966h-4.5v-4.482h-18v4.482h9.001v8.966h13.5zm-13.499-17.932h9V97.216h-9v4.482h4.5v8.967h-4.5v4.483zm-4.5-13.45V88.25h-9v13.448h9zm-13.5 4.483v-8.965h-9v13.449h9v-4.484zm0 17.933v-8.966h-4.5v8.966h-4.5v4.482h13.5v-4.482h-4.5zm121.498 49.312v-8.965h-4.5v40.346h9v-4.483h4.5v26.898h9v-8.966h9v-13.45h4.5v-4.482h-9v-8.966h-4.5v-8.965h-9v8.965h-4.5V177.91h8.999v-4.484h9v-4.483h-9v-4.482h-4.5v8.965h-9zm35.999-4.483v-4.482h-9v4.482h9zm-40.5 53.796h9V209.29h-4.5v4.482h-4.5v8.966zm-22.499 8.965h18v-8.965h-4.5v-4.483h-9v-4.483h-9v-4.482h-9v-8.967h-18v-4.483h-4.5v4.483h-4.499v4.483h-4.5v4.484h-9v4.482h-9v8.966h-4.5v4.483h18v4.482h9v-4.482h9v13.448h9v4.484h22.5s-.002-13.45 0-13.45zm-67.498 40.347v-8.966h-9v8.966h9zm0 13.449v-4.483h-13.5v4.483h13.5zm161.996-71.727v-4.482h-4.498v-4.484h-4.5v4.484h-18v4.481h-9v4.484h27v8.966h-4.5v4.482h9v-17.93h4.498zm-22.499 31.38h9.001v4.484h4.5v-13.45h-13.5v8.967zm36-17.931v-4.483h-13.5v4.483h13.5zm4.5 13.448v-4.483h-18v4.483h18zm-4.5 35.864v4.483h-13.5v4.483h18v-13.45h-9v4.484h4.5zm-26.999-8.966c-.002 0 0 4.483-.001 4.483h-4.5v4.483h18v-4.483h-9v-4.483h-4.499zm13.498-13.449h-17.999v8.966h22.499v4.483h9v-4.483h4.501v-8.966h-9v-4.482h-9v4.482zm-26.998 13.449h-4.5v13.45h-4.5v4.482h9v-17.932zm-22.5 8.966h9v-17.932h4.5v-4.483h9v8.966h4.5v-13.448h-4.5v-4.483h-4.501v-4.484h-4.5v-8.966h-13.5v44.83zm-4.501-22.415v-8.965h-18v-4.484h-4.499v4.484h-4.5v4.483h4.5v4.482h-9v8.966h4.5v-4.483h9v4.483h13.5v-4.483h-4.5v-4.483h8.999zm0 26.898v-8.966h-9v-4.483h-4.5v4.483h-8.999V285.5h9v-4.483h13.499zm-35.998-26.898v-4.482h-22.5v4.482h22.5zM85.065 285.5v-4.483h-9v4.483h9zm-18-4.483v-4.483h-8.999v4.483h9zm-13.498-8.966h26.998v-4.483h13.5v-4.483h-4.5v-4.483h-13.5v-4.483h-9v-8.965h-4.499v4.483h-9v-8.967h-4.5v-4.483h-9V285.5h13.5v-13.45zm-36-67.244h-4.5v4.484h-9v-4.484h-4.5v13.45h18v-13.45zm18 0v-4.483h-13.5v4.483h13.5zm-4.5 26.897v-13.448h-9v13.448h9zm-13.5-4.482v-4.483h-9v4.483h9zm-13.5 26.897h4.5v4.483h9v-4.483h13.5v-8.965h-13.5v-4.484h-4.5v-4.483h-9v4.483h-4.5v22.415h4.5v-8.966zm13.5 26.898v-4.483h4.5v-4.483h-9v-4.483h-9v8.966h-4.5v8.966h9v-4.483h9zm121.497-44.83v-4.483h-9v4.483h9zm-49.498-40.346v-4.483h-4.5v4.483h4.5zm103.499-98.625h-9v8.966h-9v4.483h-4.5v-8.967h4.5v-4.482h-18v22.416h-4.5v8.965h-9.001v26.898h4.5v4.483h13.501v-8.966h9v-13.45h9v-8.966h17.998v-8.965h13.5v-4.483h4.501v-13.45h-4.5v-4.482h-9V88.25h-9v8.966zm-18 107.59v-4.482h-4.5v4.483h4.5zm13.5-53.795v-8.965h-4.5v8.965h4.5zm-18 80.693v-4.482h-4.5v4.482h4.5zM62.566 106.181v-4.483h-4.5v4.483h4.5zm44.999 13.45v-4.483h-4.5v4.483h4.5zm-89.999-8.966v-4.483h-4.5v4.483h4.5zm89.999 40.347v-4.483h-4.5v4.483h4.5zm76.499 49.312v-8.966h-4.5v8.966h4.5zm-62.999-17.931v-8.966h-4.5v8.966h4.5zm-22.5 0v-4.483h-9v4.483h9zm4.5 80.692v-4.483h-4.5v4.483h4.5zm80.999 22.415v-4.483h-4.5v4.483h4.5zm-72-4.483v-8.965h-4.5v8.965h4.5zm-13.499 0v-4.483h-4.5v-4.483h-4.5V285.5h13.5v-4.483h-4.5zM35.567 240.67v-4.483h-4.5v4.483h4.5zm148.498 125.523h4.5v-13.448h-4.5v8.966h-13.5v13.449h-4.501v-4.484h-4.5v13.45h4.5v4.482h4.5v-8.965h4.5v-4.483h9s-.001-8.968.001-8.967zm-63-53.795h-4.5v8.966h13.5v-17.932h22.5v-8.966h-4.5V285.5h-27v26.898zm22.499-4.483h-9v13.45h4.5v-8.967h4.5v-4.483zm-4.5 31.38v-8.965h-4.5v4.483h-13.499v4.483h-9v4.483h13.5v-4.483h13.5zm0 8.967h-4.5v4.483h-13.499v4.483h18v-8.966zm-44.998-26.898v-4.482h-4.5v4.482h-4.5v4.482h-9v4.484h13.5v17.932h-4.5v4.483h9v-4.483h4.5v-13.45h18v-8.966h-18v-4.482h-4.5zm94.499 71.727h13.498v17.932h13.501v-22.415h-4.5v-4.482h-4.5v-4.483h-18v13.448zm9-35.863c-.003 0 0-4.483-.002-4.483h-4.498v8.966h4.5v4.482h4.499v-8.965h-4.5zm4.498-17.932h-4.5v-4.483h-4.498v8.966h17.999v-4.483h-4.5v-4.483h9v-8.966h-13.501v13.449zm13.501 17.932v-8.966h-9v8.966h9zm-4.5 17.932v-4.483h-13.5v4.483h13.5zm-99-17.932h-4.5v4.483h-4.499v4.482h-9v4.483h18v-13.448zm-8.999 44.829h18v-8.966h-4.5v4.483h-4.5v-13.448h-4.5v-4.483h-4.5v4.483h-4.5v8.965h9v4.483h-4.5v4.483zM85.066 285.5v8.966h-4.5V285.5h-4.5v8.966h-9v8.965c3.377.003 19.501 0 22.5.001v4.483h4.5v-4.483h8.892v4.483h9.107V285.5H85.066zm4.5 85.176v-8.965h-4.5v8.965h4.5zm-27 13.45v4.482h9v-4.482h9v-4.483h-13.5v4.483h-4.5zm-9 0h-13.5v13.448h4.5v-4.483h9v-8.965zm13.5-71.728v-4.483h-22.5v8.966h18v4.483h18v-4.483h-9v-4.483h-4.5zm-31.5 22.415v4.483h18v8.966h13.5v8.966h9v17.932h4.5v-22.415h-4.5v-8.966h-4.5v-8.966h-13.5v-4.483h9v-4.483h-13.5v4.483h-4.5v4.483h-13.5zm-18 49.313h18v-8.966h18v-4.484h13.5v-4.483h-4.5v-4.482h-4.5v-4.483h-4.5v-4.483h-9v-4.483h-13.5v-4.483h-8.999v-4.483h-4.5v-4.483h-4.5v-4.483h-9v67.244h13.5v-13.448zm45-94.143V285.5h-18v13.448h9v-8.964l9-.001zm-22.5 40.347v-8.966h-4.5v-4.482h-18v4.482h9.001v8.966h13.5zm-13.499-17.932h9v-17.932h-9v4.482h4.5v8.967h-4.5v4.483zm-4.5-13.45V285.5h-9v13.448h9zm-13.5 4.483v-8.965h-9v13.449h9v-4.484zm0 17.933v-8.966h-4.5v8.966h-4.5v4.482h13.5v-4.482h-4.5zm121.498 49.312v-8.965h-4.5v40.346h9v-4.483h4.5v26.898h9v-8.966h9v-13.45h4.5v-4.482h-9v-8.966h-4.5v-8.965h-9v8.965h-4.5V375.16h8.999v-4.484h9v-4.483h-9v-4.482h-4.5v8.965h-9zm35.999-4.483v-4.482h-9v4.482h9zm-40.5 53.796h9V406.54h-4.5v4.482h-4.5v8.966zm-22.499 8.965h18v-8.965h-4.5v-4.483h-9v-4.483h-9v-4.482h-9v-8.967h-18v-4.483h-4.5v4.483h-4.499v4.483h-4.5v4.484h-9v4.482h-9v8.966h-4.5v4.483h18v4.482h9v-4.482h9v13.45h9v4.482h22.5s-.002-13.45 0-13.45zm-67.498 40.348v-8.966h-9v8.966h9zm0 13.448v-4.483h-13.5v4.483h13.5zm161.996-71.727v-4.482h-4.498v-4.484h-4.5v4.484h-18v4.481h-9v4.484h27v8.966h-4.5v4.482h9v-17.93h4.498zm-22.499 31.38h9.001v4.484h4.5v-13.45h-13.5v8.967zm36-17.931v-4.483h-13.5v4.483h13.5zm4.5 13.45v-4.484h-18v4.483h18zm-4.5 35.862v4.483h-13.5v4.483h18v-13.448h-9v4.482h4.5zm-26.999-8.966c-.002 0 0 4.484-.001 4.484h-4.5v4.482h18v-4.482h-9v-4.484h-4.499zm13.498-13.449h-17.999v8.966h22.499v4.483h9v-4.483h4.501v-8.966h-9v-4.482h-9v4.482zm-26.998 13.449h-4.5v13.45h-4.5v4.482h9v-17.932zm-22.5 8.966h9v-17.932h4.5v-4.483h9v8.966h4.5v-13.448h-4.5v-4.483h-4.501v-4.483h-4.5v-8.967h-13.5v44.83zm-4.501-22.415v-8.965h-18v-4.483h-4.499v4.483h-4.5v4.483h4.5v4.482h-9v8.966h4.5v-4.483h9v4.483h13.5v-4.483h-4.5v-4.483h8.999zm0 26.898v-8.965h-9v-4.484h-4.5v4.484h-8.999v13.448h9v-4.483h13.499zm-35.998-26.898v-4.482h-22.5v4.482h22.5zM85.065 482.75v-4.483h-9v4.483h9zm-18-4.483v-4.483h-8.999v4.483h9zm-13.498-8.965h26.998v-4.484h13.5v-4.483h-4.5v-4.483h-13.5v-4.483h-9v-8.965h-4.499v4.483h-9v-8.966h-4.5v-4.484h-9v49.313h13.5v-13.448zm-36-67.245h-4.5v4.484h-9v-4.484h-4.5v13.45h18v-13.45zm18 0v-4.483h-13.5v4.483h13.5zm-4.5 26.897v-13.448h-9v13.448h9zm-13.5-4.482v-4.483h-9v4.483h9zm-13.5 26.897h4.5v4.483h9v-4.483h13.5v-8.965h-13.5v-4.483h-4.5v-4.484h-9v4.484h-4.5v22.414h4.5v-8.966zm13.5 26.898v-4.483h4.5v-4.482h-9v-4.484h-9v8.966h-4.5v8.966h9v-4.483h9zm121.497-44.83v-4.483h-9v4.483h9zm-49.498-40.346v-4.483h-4.5v4.483h4.5zm103.499-98.625h-9v8.966h-9v4.483h-4.5v-8.967h4.5v-4.482h-18v22.416h-4.5v8.965h-9.001v26.898h4.5v4.483h13.501v-8.966h9v-13.45h9v-8.966h17.998v-8.965h13.5v-4.483h4.501v-13.45h-4.5v-4.482h-9V285.5h-9v8.966zm-18 107.59v-4.482h-4.5v4.483h4.5zm13.5-53.795v-8.965h-4.5v8.965h4.5zm-18 80.693v-4.482h-4.5v4.482h4.5zM62.566 303.431v-4.483h-4.5v4.483h4.5zm44.999 13.45v-4.483h-4.5v4.483h4.5zm-89.999-8.966v-4.483h-4.5v4.483h4.5zm89.999 40.347v-4.483h-4.5v4.483h4.5zm76.499 49.312v-8.966h-4.5v8.966h4.5zm-62.999-17.931v-8.966h-4.5v8.966h4.5zm-22.5 0v-4.483h-9v4.483h9zm4.5 80.692v-4.483h-4.5v4.483h4.5zm80.999 22.415v-4.483h-4.5v4.483h4.5zm-72-4.483v-8.965h-4.5v8.965h4.5zm-13.499 0v-4.483h-4.5v-4.482h-4.5v13.448h13.5v-4.483h-4.5zm-62.998-40.346v-4.483h-4.5v4.483h4.5zm148.498 125.522h4.5v-13.448h-4.5v8.966h-13.5v13.449h-4.501v-4.484h-4.5v13.45h4.5v4.482h4.5v-8.965h4.5v-4.483h9c0-.001-.001-8.967.001-8.967zm-63-53.795h-4.5v8.966h13.5v-17.932h22.5v-8.966h-4.5v-8.966h-27v26.898zm22.499-4.482h-9v13.448h4.5v-8.966h4.5v-4.482zm-4.5 31.38v-8.966h-4.5v4.483h-13.499v4.483h-9v4.483h13.5v-4.483h13.5zm0 8.966h-4.5v4.483h-13.499v4.483h18v-8.966zm-44.998-26.898v-4.482h-4.5v4.482h-4.5v4.482h-9v4.484h13.5v17.932h-4.5v4.483h9v-4.483h4.5v-13.45h18v-8.966h-18v-4.482h-4.5zm94.499 71.727h13.498v17.932h13.501v-22.415h-4.5v-4.482h-4.5v-4.483h-18v13.448zm9-35.863c-.003 0 0-4.483-.002-4.483h-4.498v8.966h4.5v4.482h4.499v-8.965h-4.5zm4.498-17.932h-4.5v-4.483h-4.498v8.966h17.999v-4.483h-4.5v-4.483h9v-8.966h-13.501v13.449zm13.501 17.932v-8.966h-9v8.966h9zm-4.5 17.932v-4.483h-13.5v4.483h13.5zm-99-17.932h-4.5v4.483h-4.499v4.482h-9v4.483h18v-13.448zm-8.999 44.829h18v-8.966h-4.5v4.483h-4.5v-13.448h-4.5v-4.483h-4.5v4.483h-4.5v8.965h9v4.483h-4.5v4.483zM85.066 482.75v8.966h-4.5v-8.966h-4.5v8.966h-9v8.966c3.377.002 19.501-.002 22.5 0v4.483h4.5v-4.483h8.892v4.483h9.107V482.75H85.066zm4.5 85.176v-8.965h-4.5v8.965h4.5zm-27 13.45v4.482h9v-4.482h9v-4.483h-13.5v4.483h-4.5zm-9 0h-13.5v13.448h4.5v-4.483h9v-8.965zm13.5-71.728v-4.482h-22.5v8.965h18v4.483h18v-4.483h-9v-4.483h-4.5zm-31.5 22.415v4.483h18v8.966h13.5v8.966h9v17.932h4.5v-22.415h-4.5v-8.966h-4.5v-8.966h-13.5v-4.483h9v-4.483h-13.5v4.483h-4.5v4.483h-13.5zm-18 49.313h18v-8.966h18v-4.484h13.5v-4.483h-4.5v-4.482h-4.5v-4.483h-4.5v-4.483h-9v-4.483h-13.5v-4.483h-8.999v-4.483h-4.5v-4.483h-4.5v-4.483h-9v67.244h13.5v-13.448zm45-94.143v-4.483h-18v13.448h9v-8.964l9-.001zm-22.5 40.347v-8.966h-4.5v-4.482h-18v4.482h9.001v8.966h13.5zm-13.499-17.932h9v-17.932h-9v4.482h4.5v8.968h-4.5v4.482zm-4.5-13.45V482.75h-9v13.448h9zm-13.5 4.484v-8.966h-9v13.449h9v-4.483zm0 17.932v-8.966h-4.5v8.966h-4.5v4.482h13.5v-4.482h-4.5zm121.498 49.312v-8.965h-4.5v40.346h9v-4.483h4.5v26.898h9v-8.966h9v-13.45h4.5v-4.482h-9v-8.966h-4.5v-8.965h-9v8.965h-4.5V572.41h8.999v-4.484h9v-4.483h-9v-4.482h-4.5v8.965h-9zm35.999-4.483v-4.482h-9v4.482h9zm-40.5 53.796h9V603.79h-4.5v4.482h-4.5v8.966zm-22.499 8.965h18v-8.965h-4.5v-4.483h-9v-4.483h-9v-4.482h-9v-8.967h-18v-4.483h-4.5v4.483h-4.499v4.483h-4.5v4.484h-9v4.482h-9v8.966h-4.5v4.483h18v4.482h9v-4.482h9v13.45h9v4.482h22.5s-.002-13.45 0-13.45zm-67.498 40.348v-8.966h-9v8.966h9zm0 13.448v-4.483h-13.5V680h13.5zm161.996-71.727v-4.482h-4.498v-4.484h-4.5v4.484h-18v4.481h-9v4.484h27v8.966h-4.5v4.482h9v-17.93h4.498zm-22.499 31.38h9.001v4.484h4.5v-13.45h-13.5v8.967zm36-17.931v-4.483h-13.5v4.483h13.5zm4.5 13.45v-4.484h-18v4.483h18zm-4.5 35.862v4.483h-13.5V680h18v-13.448h-9v4.482h4.5zm-26.999-8.966c-.002 0 0 4.484-.001 4.484h-4.5v4.482h18v-4.482h-9v-4.484h-4.499zm13.498-13.449h-17.999v8.966h22.499v4.483h9v-4.483h4.501v-8.966h-9v-4.482h-9v4.482zm-26.998 13.449h-4.5v13.45h-4.5V680h9v-17.932zm-22.5 8.966h9v-17.932h4.5v-4.483h9v8.966h4.5v-13.448h-4.5v-4.483h-4.501v-4.483h-4.5v-8.967h-13.5v44.83zm-4.501-22.415v-8.965h-18v-4.483h-4.499v4.483h-4.5v4.483h4.5v4.482h-9v8.966h4.5v-4.483h9v4.483h13.5v-4.483h-4.5v-4.483h8.999zm0 26.898v-8.965h-9v-4.484h-4.5v4.484h-8.999V680h9v-4.483h13.499zm-35.998-26.898v-4.482h-22.5v4.482h22.5zM85.065 680v-4.483h-9V680h9zm-18-4.483v-4.483h-8.999v4.483h9zm-13.498-8.965h26.998v-4.484h13.5v-4.483h-4.5v-4.483h-13.5v-4.483h-9v-8.965h-4.499v4.483h-9v-8.966h-4.5v-4.484h-9V680h13.5v-13.448zm-36-67.245h-4.5v4.484h-9v-4.484h-4.5v13.45h18v-13.45zm18 0v-4.483h-13.5v4.483h13.5zm-4.5 26.897v-13.448h-9v13.448h9zm-13.5-4.482v-4.483h-9v4.483h9zm-13.5 26.897h4.5v4.483h9v-4.483h13.5v-8.965h-13.5v-4.483h-4.5v-4.484h-9v4.484h-4.5v22.414h4.5v-8.966zm13.5 26.898v-4.483h4.5v-4.482h-9v-4.484h-9v8.966h-4.5V680h9v-4.483h9zm121.497-44.83v-4.483h-9v4.483h9zm-49.498-40.346v-4.483h-4.5v4.483h4.5zm103.499-98.625h-9v8.966h-9v4.484h-4.5v-8.968h4.5v-4.482h-18v22.416h-4.5v8.965h-9.001v26.898h4.5v4.483h13.501v-8.966h9v-13.45h9v-8.966h17.998v-8.965h13.5v-4.483h4.501v-13.45h-4.5v-4.482h-9v-8.966h-9v8.966zm-18 107.59v-4.482h-4.5v4.483h4.5zm13.5-53.795v-8.965h-4.5v8.965h4.5zm-18 80.693v-4.482h-4.5v4.482h4.5zM62.566 500.682V496.2h-4.5v4.483h4.5zm44.999 13.449v-4.483h-4.5v4.483h4.5zm-89.999-8.966v-4.483h-4.5v4.483h4.5zm89.999 40.347v-4.483h-4.5v4.483h4.5zm76.499 49.312v-8.966h-4.5v8.966h4.5zm-62.999-17.931v-8.966h-4.5v8.966h4.5zm-22.5 0v-4.483h-9v4.483h9zm4.5 80.692v-4.483h-4.5v4.483h4.5zM184.064 680v-4.483h-4.5V680h4.5zm-72-4.483v-8.965h-4.5v8.965h4.5zm-13.499 0v-4.483h-4.5v-4.482h-4.5V680h13.5v-4.483h-4.5zm-62.998-40.346v-4.483h-4.5v4.483h4.5zm148.498 125.522h4.5v-13.448h-4.5v8.966h-13.5v13.449h-4.501v-4.483h-4.5v13.449h4.5v4.482h4.5v-8.965h4.5v-4.483h9c0-.001-.001-8.967.001-8.967zm-63-53.795h-4.5v8.966h13.5v-17.932h22.5v-8.966h-4.5V680h-27v26.898zm22.499-4.482h-9v13.448h4.5v-8.966h4.5v-4.482zm-4.5 31.38v-8.966h-4.5v4.483h-13.499v4.484h-9v4.482h13.5v-4.482h13.5zm0 8.966h-4.5v4.483h-13.499v4.483h18v-8.966zm-44.998-26.898v-4.482h-4.5v4.482h-4.5v4.482h-9v4.484h13.5v17.932h-4.5v4.483h9v-4.483h4.5v-13.45h18v-8.966h-18v-4.482h-4.5zm94.499 71.727h13.498v17.932h13.501v-22.415h-4.5v-4.482h-4.5v-4.483h-18v13.448zm9-35.863c-.003 0 0-4.483-.002-4.483h-4.498v8.966h4.5v4.482h4.499v-8.965h-4.5zm4.498-17.931h-4.5v-4.484h-4.498v8.966h17.999v-4.482h-4.5v-4.484h9v-8.966h-13.501v13.45zm13.501 17.93v-8.965h-9v8.966h9zm-4.5 17.933v-4.483h-13.5v4.483h13.5zm-99-17.932h-4.5v4.483h-4.499v4.482h-9v4.484h18v-13.45zm-8.999 44.83h18v-8.967h-4.5v4.483h-4.5v-13.448h-4.5v-4.483h-4.5v4.483h-4.5v8.965h9v4.483h-4.5v4.484zM85.066 680v8.966h-4.5V680h-4.5v8.966h-9v8.966c3.377.002 19.501-.002 22.5 0v4.483h4.5v-4.483h8.892v4.483h9.107V680H85.066zm4.5 85.177v-8.965h-4.5v8.965h4.5zm-27 13.449v4.482h9v-4.482h9v-4.483h-13.5v4.483h-4.5zm-9 0h-13.5v13.448h4.5v-4.483h9v-8.965zm13.5-71.728v-4.482h-22.5v8.965h18v4.483h18v-4.483h-9v-4.483h-4.5zm-31.5 22.415v4.484h18v8.965h13.5v8.966h9v17.932h4.5v-22.415h-4.5v-8.966h-4.5v-8.966h-13.5v-4.483h9v-4.483h-13.5v4.483h-4.5v4.483h-13.5zm-18 49.313h18v-8.966h18v-4.483h13.5v-4.484h-4.5v-4.482h-4.5v-4.483h-4.5v-4.483h-9v-4.483h-13.5v-4.483h-8.999v-4.482h-4.5v-4.484h-4.5v-4.483h-9v67.244h13.5v-13.448zm45-94.143V680h-18v13.448h9v-8.964l9-.001zm-22.5 40.347v-8.966h-4.5v-4.482h-18v4.482h9.001v8.966h13.5zm-13.499-17.932h9v-17.932h-9v4.482h4.5v8.968h-4.5v4.482zm-4.5-13.45V680h-9v13.448h9zm-13.5 4.484v-8.966h-9v13.449h9v-4.483zm0 17.932v-8.966h-4.5v8.966h-4.5v4.482h13.5v-4.482h-4.5zm121.498 49.313v-8.966h-4.5v40.347h9v-4.484h4.5v26.898h9v-8.966h9v-13.448h4.5v-4.484h-9v-8.966h-4.5v-8.965h-9v8.965h-4.5V769.66h8.999v-4.483h9v-4.484h-9v-4.482h-4.5v8.966h-9zm35.999-4.484v-4.482h-9v4.482h9zm-40.5 53.796h9V801.04h-4.5v4.482h-4.5v8.966zm-22.499 8.965h18v-8.965h-4.5v-4.483h-9v-4.483h-9v-4.482h-9v-8.967h-18v-4.483h-4.5v4.483h-4.499v4.484h-4.5v4.483h-9v4.482h-9v8.966h-4.5v4.483h18v4.482h9v-4.482h9v13.45h9v4.482h22.5s-.002-13.45 0-13.45zm-67.498 40.348v-8.966h-9v8.966h9zm0 13.448v-4.483h-13.5v4.483h13.5zm161.996-71.727v-4.482h-4.498v-4.483h-4.5v4.483h-18v4.481h-9v4.484h27v8.966h-4.5v4.482h9v-17.93h4.498zm-22.499 31.38h9.001v4.484h4.5v-13.449h-13.5v8.966zm36-17.931v-4.483h-13.5v4.483h13.5zm4.5 13.45v-4.484h-18v4.483h18zm-4.5 35.862v4.483h-13.5v4.483h18v-13.448h-9v4.482h4.5zm-26.999-8.965c-.002-.001 0 4.483-.001 4.483h-4.5v4.482h18v-4.482h-9v-4.483h-4.499zm13.498-13.45h-17.999v8.966h22.499v4.484h9v-4.484h4.501v-8.966h-9v-4.482h-9v4.482zm-26.998 13.45h-4.5v13.448h-4.5v4.483h9v-17.931zm-22.5 8.965h9v-17.932h4.5v-4.483h9v8.966h4.5v-13.448h-4.5v-4.483h-4.501v-4.483h-4.5v-8.967h-13.5v44.83zm-4.501-22.415v-8.965h-18v-4.483h-4.499v4.483h-4.5v4.483h4.5v4.482h-9v8.966h4.5v-4.483h9v4.483h13.5v-4.483h-4.5v-4.483h8.999zm0 26.898v-8.965h-9v-4.483h-4.5v4.483h-8.999v13.448h9v-4.483h13.499zm-35.998-26.898v-4.482h-22.5v4.482h22.5zM85.065 877.25v-4.483h-9v4.483h9zm-18-4.483v-4.483h-8.999v4.483h9zm-13.498-8.965h26.998v-4.483h13.5v-4.484h-4.5v-4.483h-13.5v-4.483h-9v-8.965h-4.499v4.483h-9v-8.966h-4.5v-4.483h-9v49.312h13.5v-13.448zm-36-67.244h-4.5v4.483h-9v-4.483h-4.5v13.448h18v-13.448zm18 0v-4.483h-13.5v4.483h13.5zm-4.5 26.896v-13.448h-9v13.448h9zm-13.5-4.482v-4.483h-9v4.483h9zm-13.5 26.897h4.5v4.483h9v-4.483h13.5v-8.965h-13.5v-4.483h-4.5v-4.483h-9v4.483h-4.5v22.414h4.5v-8.966zm13.5 26.898v-4.483h4.5v-4.482h-9v-4.483h-9v8.965h-4.5v8.966h9v-4.483h9zm121.497-44.829v-4.482h-9v4.482h9zm-49.498-40.347v-4.483h-4.5v4.483h4.5zm103.499-98.625h-9v8.966h-9v4.484h-4.5v-8.968h4.5v-4.482h-18v22.416h-4.5v8.965h-9.001v26.898h4.5v4.483h13.501v-8.966h9v-13.45h9v-8.966h17.998v-8.965h13.5v-4.483h4.501v-13.45h-4.5v-4.482h-9V680h-9v8.966zm-18 107.59v-4.482h-4.5v4.483h4.5zm13.5-53.794v-8.965h-4.5v8.965h4.5zm-18 80.692v-4.482h-4.5v4.482h4.5zM62.566 697.932v-4.483h-4.5v4.483h4.5zm44.999 13.449v-4.483h-4.5v4.483h4.5zm-89.999-8.966v-4.483h-4.5v4.483h4.5zm89.999 40.347v-4.483h-4.5v4.483h4.5zm76.499 49.312v-8.966h-4.5v8.966h4.5zm-62.999-17.931v-8.966h-4.5v8.966h4.5zm-22.5 0v-4.483h-9v4.483h9zm4.5 80.692v-4.483h-4.5v4.483h4.5zm80.999 22.415v-4.483h-4.5v4.483h4.5zm-72-4.483v-8.965h-4.5v8.965h4.5zm-13.499 0v-4.483h-4.5v-4.482h-4.5v13.448h13.5v-4.483h-4.5zm-62.998-40.346v-4.483h-4.5v4.483h4.5zm148.498 125.523h4.5v-13.449h-4.5v8.966h-13.5v13.449h-4.501v-4.483h-4.5v13.449h4.5v4.482h4.5v-8.965h4.5v-4.483h9c0-.001-.001-8.967.001-8.966zm-63-53.796h-4.5v8.966h13.5v-17.93h22.5v-8.968h-4.5v-8.966h-27v26.898zm22.499-4.482h-9v13.448h4.5v-8.966h4.5v-4.482zm-4.5 31.38v-8.966h-4.5v4.484h-13.499v4.483h-9v4.482h13.5v-4.482h13.5zm0 8.966h-4.5v4.483h-13.499v4.483h18v-8.966zm-44.998-26.898v-4.482h-4.5v4.482h-4.5v4.482h-9v4.484h13.5v17.932h-4.5v4.483h9v-4.483h4.5v-13.448h18v-8.968h-18v-4.482h-4.5zm94.499 71.727h13.498v17.932h13.501v-22.415h-4.5v-4.482h-4.5v-4.483h-18v13.448zm9-35.863c-.003 0 0-4.483-.002-4.483h-4.498v8.966h4.5v4.483h4.499v-8.966h-4.5zm4.498-17.931h-4.5v-4.483h-4.498v8.965h17.999v-4.482h-4.5v-4.483h9v-8.967h-13.501v13.45zm13.501 17.93v-8.965h-9v8.966h9zm-4.5 17.933v-4.483h-13.5v4.483h13.5zm-99-17.932h-4.5v4.483h-4.499v4.483h-9v4.483h18v-13.45zm-8.999 44.83h18v-8.967h-4.5v4.483h-4.5v-13.448h-4.5v-4.483h-4.5v4.483h-4.5v8.965h9v4.483h-4.5v4.484zM85.066 877.25v8.966h-4.5v-8.966h-4.5v8.966h-9v8.966c3.377.002 19.501-.002 22.5.001v4.482h4.5v-4.482h8.892v4.482h9.107V877.25H85.066zm4.5 85.177v-8.965h-4.5v8.965h4.5zm-27 13.449v4.482h9v-4.482h9v-4.483h-13.5v4.483h-4.5zm-9 0h-13.5v13.448h4.5v-4.483h9v-8.965zm13.5-71.728v-4.482h-22.5v8.965h18v4.483h18v-4.483h-9v-4.483h-4.5zm-31.5 22.416v4.483h18v8.965h13.5v8.966h9v17.932h4.5v-22.415h-4.5v-8.966h-4.5v-8.965h-13.5v-4.484h9v-4.483h-13.5v4.483h-4.5v4.484h-13.5zm-18 49.312h18v-8.966h18v-4.483h13.5v-4.483h-4.5v-4.483h-4.5v-4.483h-4.5v-4.483h-9v-4.483h-13.5v-4.483h-8.999v-4.482h-4.5v-4.483h-4.5v-4.484h-9v67.244h13.5v-13.448zm45-94.143v-4.483h-18v13.45h9v-8.966l9-.001zm-22.5 40.347v-8.966h-4.5v-4.482h-18v4.482h9.001v8.966h13.5zm-13.499-17.932h9v-17.932h-9v4.483h4.5v8.967h-4.5v4.482zm-4.5-13.449v-13.448h-9V890.7h9zm-13.5 4.483v-8.966h-9v13.449h9v-4.483zm0 17.932v-8.966h-4.5v8.966h-4.5v4.482h13.5v-4.482h-4.5zm121.498 49.313v-8.966h-4.5v40.347h9v-4.484h4.5v26.898h9v-8.966h9v-13.448h4.5v-4.484h-9v-8.966h-4.5v-8.965h-9v8.965h-4.5V966.91h8.999v-4.483h9v-4.483h-9v-4.483h-4.5v8.966h-9zm35.999-4.483v-4.482h-9v4.482h9zm-40.5 53.795h9V998.29h-4.5v4.482h-4.5v8.966zm-22.499 8.965h18v-8.965h-4.5v-4.483h-9v-4.483h-9v-4.482h-9v-8.967h-18v-4.483h-4.5v4.483h-4.499v4.484h-4.5v4.483h-9v4.482h-9v8.966h-4.5v4.483h18v4.482h9v-4.482h9v13.45h9v4.482h22.5s-.002-13.45 0-13.45zm-67.498 40.348v-8.966h-9v8.966h9zm0 13.448v-4.483h-13.5v4.483h13.5zm161.996-71.727v-4.482h-4.498v-4.483h-4.5v4.483h-18v4.481h-9v4.484h27v8.966h-4.5v4.482h9v-17.93h4.498zm-22.499 31.38h9.001v4.484h4.5v-13.449h-13.5v8.966zm36-17.931v-4.483h-13.5v4.483h13.5zm4.5 13.45v-4.484h-18v4.483h18zm-4.5 35.862v4.483h-13.5v4.483h18v-13.448h-9v4.482h4.5zm-26.999-8.965c-.002-.001 0 4.483-.001 4.483h-4.5v4.482h18v-4.482h-9v-4.483h-4.499zm13.498-13.45h-17.999v8.967h22.499v4.483h9v-4.483h4.501v-8.967h-9v-4.482h-9v4.482zm-26.998 13.45h-4.5v13.448h-4.5v4.483h9v-17.931zm-22.5 8.965h9v-17.932h4.5v-4.483h9v8.967h4.5v-13.45h-4.5v-4.482h-4.501v-4.483h-4.5v-8.967h-13.5v44.83zm-4.501-22.415v-8.965h-18v-4.483h-4.499v4.483h-4.5v4.483h4.5v4.482h-9v8.967h4.5v-4.484h9v4.484h13.5v-4.484h-4.5v-4.483h8.999zm0 26.898v-8.965h-9v-4.483h-4.5v4.483h-8.999v13.448h9v-4.483h13.499zm-35.998-26.898v-4.482h-22.5v4.482h22.5zM85.065 1074.5v-4.483h-9v4.483h9zm-18-4.483v-4.483h-8.999v4.483h9zm-13.498-8.965h26.998v-4.483h13.5v-4.483h-4.5v-4.484h-13.5v-4.483h-9v-8.965h-4.499v4.483h-9v-8.966h-4.5v-4.483h-9v49.312h13.5v-13.448zm-36-67.244h-4.5v4.483h-9v-4.483h-4.5v13.448h18v-13.448zm18 0v-4.483h-13.5v4.483h13.5zm-4.5 26.896v-13.448h-9v13.448h9zm-13.5-4.482v-4.483h-9v4.483h9zm-13.5 26.897h4.5v4.483h9v-4.483h13.5v-8.965h-13.5v-4.483h-4.5v-4.483h-9v4.483h-4.5v22.415h4.5v-8.967zm13.5 26.898v-4.483h4.5v-4.482h-9v-4.483h-9v8.965h-4.5v8.966h9v-4.483h9zm121.497-44.829v-4.482h-9v4.482h9zm-49.498-40.347v-4.483h-4.5v4.483h4.5zm103.499-98.625h-9v8.967h-9v4.483h-4.5V890.7h4.5v-4.483h-18v22.416h-4.5v8.965h-9.001v26.898h4.5v4.483h13.501v-8.966h9v-13.448h9v-8.968h17.998v-8.965h13.5v-4.483h4.501V890.7h-4.5v-4.483h-9v-8.966h-9v8.966zm-18 107.59v-4.482h-4.5v4.483h4.5zm13.5-53.794v-8.965h-4.5v8.965h4.5zm-18 80.692v-4.482h-4.5v4.482h4.5zM62.566 895.182V890.7h-4.5v4.483h4.5zm44.999 13.449v-4.483h-4.5v4.483h4.5zm-89.999-8.965v-4.483h-4.5v4.483h4.5zm89.999 40.346v-4.483h-4.5v4.483h4.5zm76.499 49.312v-8.966h-4.5v8.966h4.5zm-62.999-17.931v-8.966h-4.5v8.966h4.5zm-22.5 0v-4.483h-9v4.483h9zm4.5 80.692v-4.483h-4.5v4.483h4.5zm80.999 22.415v-4.483h-4.5v4.483h4.5zm-72-4.483v-8.965h-4.5v8.965h4.5zm-13.499 0v-4.483h-4.5v-4.482h-4.5v13.448h13.5v-4.483h-4.5zm-62.998-40.346v-4.483h-4.5v4.483h4.5zm148.498 125.523h4.5v-13.449h-4.5v8.966h-13.5v13.449h-4.501v-4.483h-4.5v13.449h4.5v4.482h4.5v-8.965h4.5v-4.483h9c0-.001-.001-8.967.001-8.966zm-63-53.796h-4.5v8.966h13.5v-17.93h22.5v-8.968h-4.5v-8.966h-27v26.898zm22.499-4.482h-9v13.448h4.5v-8.966h4.5v-4.482zm-4.5 31.38v-8.966h-4.5v4.484h-13.499v4.483h-9v4.482h13.5v-4.482h13.5zm0 8.966h-4.5v4.483h-13.499v4.483h18v-8.966zm-44.998-26.898v-4.482h-4.5v4.482h-4.5v4.482h-9v4.484h13.5v17.932h-4.5v4.483h9v-4.483h4.5v-13.448h18v-8.968h-18v-4.482h-4.5zm94.499 71.727h13.498v17.932h13.501v-22.415h-4.5v-4.482h-4.5v-4.483h-18v13.448zm9-35.863c-.003 0 0-4.483-.002-4.483h-4.498v8.966h4.5v4.483h4.499v-8.966h-4.5zm4.498-17.931h-4.5v-4.483h-4.498v8.965h17.999v-4.482h-4.5v-4.483h9v-8.967h-13.501v13.45zm13.501 17.93v-8.965h-9v8.966h9zm-4.5 17.933v-4.483h-13.5v4.483h13.5zm-99-17.932h-4.5v4.483h-4.499v4.483h-9v4.483h18v-13.45zm-8.999 44.83h18v-8.967h-4.5v4.484h-4.5v-13.45h-4.5v-4.482h-4.5v4.483h-4.5v8.965h9v4.484h-4.5v4.483zM85.066 1074.5v8.966h-4.5v-8.966h-4.5v8.966h-9v8.966c3.377.002 19.501-.002 22.5.001v4.482h4.5v-4.482h8.892v4.482h9.107V1074.5H85.066zm4.5 85.177v-8.965h-4.5v8.965h4.5zm-27 13.449v4.482h9v-4.482h9v-4.483h-13.5v4.483h-4.5zm-9 0h-13.5v13.449h4.5v-4.484h9v-8.965zm13.5-71.728v-4.482h-22.5v8.965h18v4.483h18v-4.483h-9v-4.483h-4.5zm-31.5 22.416v4.483h18v8.965h13.5v8.966h9v17.932h4.5v-22.415h-4.5v-8.966h-4.5v-8.965h-13.5v-4.484h9v-4.483h-13.5v4.483h-4.5v4.484h-13.5zm-18 49.312h18v-8.966h18v-4.483h13.5v-4.483h-4.5v-4.483h-4.5v-4.483h-4.5v-4.483h-9v-4.483h-13.5v-4.483h-8.999v-4.482h-4.5v-4.483h-4.5v-4.484h-9v67.245h13.5v-13.45zm45-94.143v-4.483h-18v13.45h9v-8.966l9-.001zm-22.5 40.347v-8.966h-4.5v-4.482h-18v4.482h9.001v8.966h13.5zm-13.499-17.932h9v-17.932h-9v4.483h4.5v8.967h-4.5v4.482zm-4.5-13.449v-13.448h-9v13.448h9zm-13.5 4.483v-8.966h-9v13.449h9v-4.483zm0 17.932v-8.966h-4.5v8.966h-4.5v4.482h13.5v-4.482h-4.5zm121.498 49.313v-8.966h-4.5v40.347h9v-4.483h4.5v26.897h9v-8.966h9v-13.448h4.5v-4.483h-9v-8.967h-4.5v-8.965h-9v8.965h-4.5v-13.448h8.999v-4.483h9v-4.483h-9v-4.483h-4.5v8.966h-9zm35.999-4.483v-4.482h-9v4.482h9zm-40.5 53.795h9v-13.448h-4.5v4.482h-4.5v8.966zm-22.499 8.967h18v-8.967h-4.5v-4.483h-9v-4.483h-9v-4.482h-9v-8.966h-18v-4.484h-4.5v4.484h-4.499v4.483h-4.5v4.483h-9v4.482h-9v8.966h-4.5v4.483h18v4.484h9v-4.484h9v13.45h9v4.482h22.5s-.002-13.45 0-13.448zm-67.498 40.346v-8.966h-9v8.966h9zm0 13.448v-4.483h-13.5v4.483h13.5zm161.996-71.727v-4.482h-4.498v-4.483h-4.5v4.483h-18v4.481h-9v4.484h27v8.966h-4.5v4.484h9v-17.933h4.498zm-22.499 31.38h9.001v4.484h4.5v-13.449h-13.5v8.966zm36-17.931v-4.483h-13.5v4.483h13.5zm4.5 13.45v-4.484h-18v4.483h18zm-4.5 35.862v4.483h-13.5v4.483h18v-13.448h-9v4.482h4.5zm-26.999-8.965c-.002-.001 0 4.483-.001 4.483h-4.5v4.482h18v-4.482h-9v-4.483h-4.499zm13.498-13.45h-17.999v8.967h22.499v4.483h9v-4.483h4.501v-8.967h-9v-4.482h-9v4.482zm-26.998 13.45h-4.5v13.448h-4.5v4.483h9v-17.931zm-22.5 8.965h9v-17.932h4.5v-4.483h9v8.967h4.5v-13.45h-4.5v-4.482h-4.501v-4.483h-4.5v-8.965h-13.5v44.828zm-4.501-22.415v-8.965h-18v-4.483h-4.499v4.483h-4.5v4.483h4.5v4.482h-9v8.967h4.5v-4.484h9v4.484h13.5v-4.484h-4.5v-4.483h8.999zm0 26.898v-8.965h-9v-4.483h-4.5v4.483h-8.999v13.448h9v-4.483h13.499zm-35.998-26.898v-4.482h-22.5v4.482h22.5zm-22.501 31.381v-4.483h-9v4.483h9zm-18-4.483v-4.483h-8.999v4.483h9zm-13.498-8.965h26.998v-4.483h13.5v-4.483h-4.5v-4.484h-13.5v-4.483h-9v-8.965h-4.499v4.483h-9v-8.966h-4.5v-4.483h-9v49.312h13.5v-13.448zm-36-67.244h-4.5v4.483h-9v-4.483h-4.5v13.448h18v-13.448zm18 0v-4.483h-13.5v4.483h13.5zm-4.5 26.896v-13.448h-9v13.448h9zm-13.5-4.482v-4.483h-9v4.483h9zm-13.5 26.897h4.5v4.483h9v-4.483h13.5v-8.965h-13.5v-4.483h-4.5v-4.483h-9v4.483h-4.5v22.415h4.5v-8.967zm13.5 26.898v-4.483h4.5v-4.482h-9v-4.483h-9v8.965h-4.5v8.966h9v-4.483h9zm121.497-44.829v-4.482h-9v4.482h9zm-49.498-40.347v-4.483h-4.5v4.483h4.5zm103.499-98.625h-9v8.967h-9v4.483h-4.5v-8.967h4.5v-4.483h-18v22.416h-4.5v8.965h-9.001v26.898h4.5v4.483h13.501v-8.966h9v-13.448h9v-8.968h17.998v-8.965h13.5v-4.483h4.501v-13.449h-4.5v-4.483h-9v-8.966h-9v8.966zm-18 107.592v-4.483h-4.5v4.483h4.5zm13.5-53.796v-8.965h-4.5v8.965h4.5zm-18 80.694v-4.483h-4.5v4.483h4.5zM62.566 1092.432v-4.483h-4.5v4.483h4.5zm44.999 13.449v-4.483h-4.5v4.483h4.5zm-89.999-8.965v-4.483h-4.5v4.483h4.5zm89.999 40.346v-4.483h-4.5v4.483h4.5zm76.499 49.312v-8.966h-4.5v8.966h4.5zm-62.999-17.931v-8.966h-4.5v8.966h4.5zm-22.5 0v-4.483h-9v4.483h9zm4.5 80.692v-4.483h-4.5v4.483h4.5zm80.999 22.415v-4.483h-4.5v4.483h4.5zm-72-4.483v-8.965h-4.5v8.965h4.5zm-13.499 0v-4.483h-4.5v-4.482h-4.5v13.448h13.5v-4.483h-4.5zm-62.998-40.346v-4.483h-4.5v4.483h4.5zm148.498 125.523h4.5v-13.449h-4.5v8.967h-13.5v13.448h-4.501v-4.483h-4.5v13.449h4.5v4.482h4.5v-8.965h4.5v-4.483h9c0-.001-.001-8.967.001-8.966zm-63-53.796h-4.5v8.966h13.5v-17.93h22.5v-8.967h-4.5v-8.967h-27v26.898zm22.499-4.482h-9v13.448h4.5v-8.966h4.5v-4.482zm-4.5 31.38v-8.965h-4.5v4.483h-13.499v4.483h-9v4.482h13.5v-4.482h13.5zm0 8.966h-4.5v4.483h-13.499v4.483h18v-8.966zm-44.998-26.898v-4.482h-4.5v4.482h-4.5v4.483h-9v4.484h13.5v17.931h-4.5v4.483h9v-4.483h4.5v-13.448h18v-8.967h-18v-4.483h-4.5zm94.499 71.728h13.498v17.931h13.501v-22.415h-4.5v-4.482h-4.5v-4.483h-18v13.45zm9-35.864c-.003 0 0-4.483-.002-4.483h-4.498v8.967h4.5v4.482h4.499v-8.966h-4.5zm4.498-17.931h-4.5v-4.483h-4.498v8.965h17.999v-4.482h-4.5v-4.483h9v-8.967h-13.501v13.45zm13.501 17.93v-8.965h-9v8.966h9zm-4.5 17.933v-4.483h-13.5v4.483h13.5zm-99-17.932h-4.5v4.484h-4.499v4.482h-9v4.483h18v-13.45zm-8.999 44.83h18v-8.966h-4.5v4.483h-4.5v-13.45h-4.5v-4.482h-4.5v4.483h-4.5v8.966h9v4.483h-4.5v4.483zM85.066 1271.75v8.967h-4.5v-8.967h-4.5v8.967h-9v8.965c3.377.002 19.501-.002 22.5.001v4.482h4.5v-4.482h8.892v4.482h9.107v-22.415H85.066zm4.5 85.177v-8.965h-4.5v8.965h4.5zm-27 13.449v4.482h9v-4.482h9v-4.483h-13.5v4.483h-4.5zm-9 0h-13.5v13.449h4.5v-4.483h9v-8.966zm13.5-71.728v-4.482h-22.5v8.965h18v4.483h18v-4.483h-9v-4.483h-4.5zm-31.5 22.416v4.483h18v8.965h13.5v8.966h9v17.932h4.5v-22.415h-4.5v-8.966h-4.5v-8.965h-13.5v-4.483h9v-4.484h-13.5v4.484h-4.5v4.483h-13.5zm-18 49.312h18v-8.966h18v-4.483h13.5v-4.483h-4.5v-4.482h-4.5v-4.484h-4.5v-4.483h-9v-4.483h-13.5v-4.483h-8.999v-4.482h-4.5v-4.483h-4.5v-4.483h-9v67.244h13.5v-13.45zm45-94.143v-4.483h-18v13.45h9v-8.966l9-.001zm-22.5 40.348v-8.967h-4.5v-4.482h-18v4.482h9.001v8.967h13.5zm-13.499-17.933h9v-17.931h-9v4.482h4.5v8.967h-4.5v4.482zm-4.5-13.449v-13.448h-9v13.448h9zm-13.5 4.483v-8.965h-9v13.448h9v-4.483zm0 17.932v-8.966h-4.5v8.966h-4.5v4.483h13.5v-4.483h-4.5zm121.498 49.313v-8.965h-4.5v40.346h9v-4.483h4.5v26.898h9v-8.967h9v-13.448h4.5v-4.483h-9v-8.967h-4.5v-8.965h-9v8.965h-4.5v-13.448h8.999v-4.483h9v-4.483h-9v-4.482h-4.5v8.965h-9zm35.999-4.483v-4.482h-9v4.482h9zm-40.5 53.795h9v-13.448h-4.5v4.482h-4.5v8.966zm-22.499 8.967h18v-8.967h-4.5v-4.483h-9v-4.483h-9v-4.482h-9v-8.966h-18v-4.483h-4.5v4.483h-4.499v4.483h-4.5v4.483h-9v4.482h-9v8.966h-4.5v4.484h18v4.483h9v-4.483h9v13.448h9v4.483h22.5s-.002-13.45 0-13.448zm-67.498 40.346v-8.966h-9v8.966h9zm0 13.448v-4.483h-13.5V1469h13.5zm161.996-71.727v-4.482h-4.498v-4.483h-4.5v4.483h-18v4.481h-9v4.484h27v8.967h-4.5v4.483h9v-17.933h4.498zm-22.499 31.38h9.001v4.484h4.5v-13.449h-13.5v8.966zm36-17.93v-4.483h-13.5v4.483h13.5zm4.5 13.448v-4.483h-18v4.483h18zm-4.5 35.863v4.483h-13.5V1469h18v-13.448h-9v4.482h4.5zm-26.999-8.965c-.002-.001 0 4.483-.001 4.483h-4.5v4.482h18v-4.482h-9v-4.483h-4.499zm13.498-13.45h-17.999v8.967h22.499v4.483h9v-4.483h4.501v-8.967h-9v-4.482h-9v4.482zm-26.998 13.45h-4.5v13.448h-4.5V1469h9v-17.931zm-22.5 8.965h9v-17.93h4.5v-4.485h9v8.967h4.5v-13.45h-4.5v-4.482h-4.501v-4.483h-4.5v-8.965h-13.5v44.828zm-4.501-22.415v-8.965h-18v-4.483h-4.499v4.483h-4.5v4.483h4.5v4.482h-9v8.967h4.5v-4.483h9v4.483h13.5v-4.483h-4.5v-4.484h8.999zm0 26.898v-8.965h-9v-4.483h-4.5v4.483h-8.999V1469h9v-4.483h13.499zm-35.998-26.898v-4.482h-22.5v4.482h22.5zM85.065 1469v-4.483h-9V1469h9zm-18-4.483v-4.483h-8.999v4.483h9zm-13.498-8.965h26.998v-4.483h13.5v-4.483h-4.5v-4.483h-13.5v-4.484h-9v-8.965h-4.499v4.483h-9v-8.966h-4.5v-4.483h-9V1469h13.5v-13.448zm-36-67.244h-4.5v4.483h-9v-4.483h-4.5v13.448h18v-13.448zm18 0v-4.483h-13.5v4.483h13.5zm-4.5 26.896v-13.448h-9v13.448h9zm-13.5-4.482v-4.483h-9v4.483h9zm-13.5 26.897h4.5v4.484h9v-4.484h13.5v-8.965h-13.5v-4.483h-4.5v-4.483h-9v4.483h-4.5v22.415h4.5v-8.967zm13.5 26.898v-4.483h4.5v-4.482h-9v-4.483h-9v8.965h-4.5V1469h9v-4.483h9zm121.497-44.829v-4.482h-9v4.482h9zm-49.498-40.346v-4.483h-4.5v4.483h4.5zm103.499-98.625h-9v8.966h-9v4.483h-4.5v-8.967h4.5v-4.482h-18v22.415h-4.5v8.965h-9.001v26.898h4.5v4.483h13.501v-8.966h9v-13.448h9v-8.967h17.998v-8.966h13.5v-4.483h4.501v-13.449h-4.5v-4.482h-9v-8.967h-9v8.967zm-18 107.59v-4.482h-4.5v4.483h4.5zm13.5-53.795v-8.965h-4.5v8.965h4.5zm-18 80.694v-4.483h-4.5v4.483h4.5zM62.566 1289.682v-4.483h-4.5v4.483h4.5zm44.999 13.449v-4.483h-4.5v4.483h4.5zm-89.999-8.965v-4.483h-4.5v4.483h4.5zm89.999 40.346v-4.483h-4.5v4.483h4.5zm76.499 49.312v-8.966h-4.5v8.966h4.5zm-62.999-17.931v-8.966h-4.5v8.966h4.5zm-22.5 0v-4.483h-9v4.483h9zm4.5 80.693v-4.483h-4.5v4.483h4.5zM184.064 1469v-4.483h-4.5V1469h4.5zm-72-4.483v-8.965h-4.5v8.965h4.5zm-13.499 0v-4.483h-4.5v-4.482h-4.5V1469h13.5v-4.483h-4.5zm-62.998-40.346v-4.483h-4.5v4.483h4.5zm215.997-1057.98h36v-17.933h-9v8.967h-27v8.965zm-9.001 71.726v8.966h-9v-26.897h-9v-8.967h-8.999v26.897h9v8.967h-9v8.966h36v-17.932h-9.001zm-18 242.079v-8.966h-8.999v8.966h9zm0-313.806v8.966h-8.999v17.932h18V366.19h-9zm0-80.694v-8.966h-8.999v8.966h9zm27 125.523v-17.932h-8.999v17.932h9zm63-152.42v-17.932h-9v-17.931h-36v-8.967h27v-17.931h-18v-8.967h-9v8.967h-18v80.692h-9v17.933h27V258.6h45zm-18 17.931v-8.964h-18v26.897h9V276.53h9zm-63 62.762h27v-8.965h27v-17.932h-9v8.966h-27v8.966h-18v8.965zm45 224.148v-8.965h18v-17.933h-36v-8.965h-9v8.965h-9v8.966h9v8.967h-18v17.93h9v-8.965h18v8.966h27v-8.966h-9zm-54-8.967v-8.965h-9v8.965h9zm-9-331.737v44.829h18v-44.83h-18zm72 224.147v53.795h18v-17.931h18.001v-26.898h8.998v-8.966h-17.999v-17.93h-9v-17.934h-18v17.933h-9v-26.899h18v-8.965h18v-8.967h-18v-8.965h-9v17.932h-18v-17.932h-9v80.693h18v-8.966h9zm-72 170.353v44.829h18v-44.83h-18zm18-8.966v-17.932h-9v17.932h9zm27-134.49v17.932h18v-26.897h-9v8.965h-9zm27 44.83v-8.965h-18v8.965h18zm-72 12.553v5.378-5.378zm36-21.52v-17.93h-9v-8.966h-18v-8.967h-9v37.234l.001-1.37h36zm-27-161.385v-8.966h-8.999v8.966h9zm9-403.466h27v-8.965h27v-17.932h-9v8.965h-27v8.967h-18v8.965zm18 26.898h36v-17.932h-9v8.967h-27v8.965zm-27 0v8.966h-8.999v17.932h18V-28.31h-9zm18.001-44.83v-17.932h-27v17.932h27zm-18 26.898v-8.966h-9v8.966h9zm9 260.012v-17.932h-9v17.932h9zm197.994 1174.533v-8.965h-8.995v8.965h8.995zM413.562-64.173h-9v-8.967h-8.999v17.932h35.996v-8.965h-8.996v-8.967h8.996v-17.93h-17.997v26.898zm-144-35.864v-8.957h-27v8.957h27zm18 0v-8.957h-8.999v8.957h9zm-45 143.454v8.965h-8.999V25.485h-9v-8.966h-8.999v26.898h9v8.965h-9v8.967h36V43.417h-9.001zm162 35.863v-8.965h-8.999v-8.966h-9v8.966h-36v8.964h-18v8.967h54v17.932h-9v8.965h18V79.28h8.999zm-125.999 89.66v-8.965h18v-17.933h-36v-8.965h-9v8.965h-9v8.966h9v8.967h-18v17.93h9v-8.965h18v8.966h27v-8.966h-9zm-54-8.967v-8.965h-8.999v8.965h9zm63-35.863v-8.965h-18v8.965h18zm0-71.728v53.796h18V88.246h18.001V61.349h8.998v-8.967h-17.999v-17.93h-9V16.52h-18v17.933h-9v-26.9h18v-8.965h18v-8.967h-18v-8.965h-9v17.932h-18v-17.932h-9v80.693h18v-8.967h9zm-36-35.863V-1.413h-8.999v17.932h9zm99 98.624v-8.965h-9v8.965h9zm-90-35.863v17.932h18V70.315h-9v8.965h-9zm-18 17.933v-8.967h-18V79.28h-8.999v35.863h36v-17.93h-9.001zm-9 636.58h27v-8.966h27v-17.932h-9v8.966h-27v8.966h-18v8.965zm18 466.227v-17.932h-8.999v17.932h9zm36 35.863v53.796h18v-17.932h18.001v-26.898h8.998v-8.966h-17.999v-17.93h-9v-17.933h-18v17.932h-9v-26.899h18v-8.965h18v-8.966h-18v-8.965h-9v17.93h-18v-17.93h-9v80.692h18v-8.966h9zm-45-8.965v8.965h-9v-26.897h-9v-8.966h-8.999v26.898h9v8.965h-9v8.966h36v-17.931h-9.001zm18 35.863v17.931h18v-26.897h-9v8.966h-9zm-36-107.59v8.966h-8.999v17.931h18v-26.898h-9zm9-26.899h27v-8.965h27v-17.931h-9v8.965h-27v8.966h-18v8.965zm18 26.898h36v-17.931h-9v8.966h-27v8.965zm-27-17.932v-8.966h-8.999v8.966h9zm90-484.158v-17.933h-9v-17.931h-36v-8.967h27v-17.931h-18v-8.966h-9v8.966h-18v80.692h-9v17.933h27V653.1h45zm-99 667.063v5.38-5.38zm99 121.937v-17.932h-9v-17.932h-36v-8.966h27v-17.932h-18v-8.966h-9v8.966h-18v80.693h-9V1469h27v-26.9h45zm-27-134.489v-8.965h-18v8.965h18zm9 152.42v-8.965h-18V1469h9v-8.969h9zm-72 8.966v-8.966h-8.999v8.966h9zm206.996 0v-44.83h-17.997v-17.931h17.997v-8.966h-26.996v8.966h-9v17.932h-18v17.932h-18v8.966h-9v-17.933h9v-8.965h-35.999v44.83h-9v.002h89.998v-.003h26.997zm-215.996-62.761v44.829h18v-44.83h-18zm9-62.761v-8.966h-9v8.966h9zm18.001-233.115v-17.932h-27v17.932h27zm-9 286.91v-17.932h-9v17.932h9zm45-44.83v-8.965h18v-17.932h-36.001v-8.966h-9v8.966h-9v8.966h9v8.966h-18v17.932h9v-8.967h18v8.967h27v-8.967h-9zm-27-53.795v-17.932h-9.001v-8.966h-18v-8.966h-9v37.233l.001-1.37h36zm-27-537.955v8.966h-9v17.932h18V760.69h-9zm17.999 71.727v8.966h-9v-26.897h-9v-8.966h-8.999v26.896h9v8.967h-9v8.966h36v-17.932h-9.001zm45 8.966v53.795h18v-17.931h18.001v-26.898h8.998v-8.966h-17.999v-17.93h-9V805.52h-18v17.932h-9v-26.899h18v-8.965h18v-8.966h-18v-8.966h-9v17.932h-18v-17.932h-9v80.693h18v-8.966h9zm-36-80.693h36v-17.93h-9v8.966h-27v8.965zm0 44.83v-17.932h-8.999v17.932h9zm-27-62.762v-8.966h-8.999v8.966h9zm72-71.728v-8.964h-18v26.897h9V671.03h9zm81 735.206v-8.966h-9v8.966h9zm-135-690.376v-17.932h-27v17.932h27zm72 331.74v-17.933h-9.001v-17.931h-36v-8.966h27v-17.932h-18v-8.966h-9v8.966h-18v80.693h-9v17.932h27V1047.6h45zm-54.001-179.319v17.931h18v-26.897h-9v8.966h-9zm-27 134.49v-17.933h-9v17.932h9zm-9 71.726v-8.966h-8.999v8.966h9zm72-8.966v-8.965h-18v26.897h9v-17.932h9zm-81-53.795v44.829h18v-44.83h-18zm72-98.625v-8.965h-18v8.965h18zm-36-8.966v-17.932h-9v-8.966h-18v-8.966h-9v37.233l.001-1.37h36zm-36 21.518v5.378-5.378zm63 32.277v-8.965h18v-17.933h-36v-8.965h-9v8.965h-9v8.967h9v8.966h-18v17.93h9v-8.965h18v8.966h27v-8.966h-9zm-54-8.965v-8.966h-9v8.966h9zm18.001-627.615v-17.932h-27v17.932h27zm99 62.761v-8.965h-18v8.965h18zm-45-26.896h8.999v8.965h27v-17.932h18V321.36h18v-17.933h35.999v-17.931h26.997v-44.83h-17.997v-17.931h17.997v-8.967h-26.996v8.967h-9v17.93h-18V258.6h-18v8.967h-9v-17.934h9v-8.965h-35.999v44.83h-9v17.932h-18v53.796zm80.998-304.843v-17.93h-9v17.93h9zm-45 170.354h18.002V186.87h-9.001v26.898h-9v8.967zm27.001-161.387v-8.966h-9v8.966h9zm-35.999 1326.956v-35.865h8.998v-8.965h18.002v17.932h9v-26.898h-9v-8.966h-9.001v-8.966h-9v-17.931h-27v89.659h18.001zM431.559 473.78v-53.794h-8.996v-8.967h-36v26.898h27v35.863h17.996zm-89.996-80.692h-9v26.898h9v8.965h9V411.02h9v-8.966h18v-17.932h9v-26.896h-9v17.93h-27v26.898h-9v-8.965zm36 53.795v-17.93h-9v17.93h9zm-36-457.262v-8.965h-18v8.965h18zm89.995 89.66V25.484h-8.996v-8.966h-36v26.898h27V79.28h17.996zM386.564-46.243v-17.932h-9v17.932h9zm44.995 251.045v-8.965h-8.995v8.965h8.995zm0-98.625v-8.965h-26.996v8.965h26.996zM404.563-28.31c-.002.001 0-8.965-.001-8.965h-8.999v17.93h9v8.966h9v-17.93h-9zm-54 537.953v-8.965h-9v8.965h9zm-9-511.055h-9v26.897h9v8.966h9V16.52h9V7.553h18v-17.932h9v-26.896h-9v17.93h-27V7.554h-9v-8.965zm89.996 8.965v-8.965h-26.996v8.965h26.996zm-62.996 197.25h35.999v-8.965h-17.998v-8.967h-9.002v8.967h-9v8.965zM431.559-28.31v-17.932h-8.995v17.932h8.995zm-134.996-8.965h9v8.965h27v-17.932h18V-73.14h18v-17.932h35.999v-17.922h-89.999v17.923h-18v53.796zm81 1273.158v-17.93h-9v17.93h9zm53.996 26.898v-53.795h-8.996v-8.966h-36v26.898h27v35.863h17.996zm-35.996-753.138V473.78h8.999v-8.965h-8.999v-8.966h-9v8.966h-36v8.965h-18v8.967h54v17.93h-9v8.966h18zm-54 672.445h-9v26.898h9v8.965h9v-17.93h9v-8.968h18v-17.93h9v-26.898h-9v17.932h-27v26.896h-9v-8.965zm54 116.557v-35.864h8.999v-8.966h-8.999v-8.966h-9v8.966h-36v8.965h-18v8.967h54v17.932h-9v8.966h18zm-63 107.59h18v-35.863h-9v26.898h-9v8.966zm-36-260.01h9v8.965h27v-17.931h18v-26.898h18v-17.933h35.999v-17.931h26.997v-44.83h-17.997v-17.931h17.997v-8.966h-26.996v8.966h-9v17.93h-18v17.934h-18v8.966h-9v-17.933h9v-8.966h-35.999v44.83h-9v17.932h-18v53.796zm54 152.42v-8.966h-9v8.966h9zm9-53.796v-8.966h-9v8.966h9zm-17.999-71.727v-8.965h-18v8.965h18zm0-394.5v-8.966h-18v8.965h18zm-9.002-161.386h18.002v-35.864h-9.001v26.897h-9v8.967zm9.001 170.352h-9v26.898h9v8.965h9v-17.93h9v-8.968h18v-17.93h9v-26.898h-9v17.93h-27v26.898h-9v-8.965zm-45-35.863h9v8.965h27v-17.93h18v-26.898h18v-17.933h35.999v-17.931h26.997v-44.83h-17.997v-17.931h17.997v-8.967h-26.996v8.967h-9v17.93h-18V653.1h-18v8.966h-9v-17.933h9v-8.966h-35.999v44.83h-9v17.932h-18v53.796zm81 89.658v-17.93h-9v17.93h9zm18 62.762V868.28h8.999v-8.966h-8.999v-8.966h-9v8.966h-36v8.965h-18v8.967h54v17.93h-9v8.968h18zm35.996-35.864v-53.795h-8.996v-8.966h-36v26.897h27v35.864h17.996zm-80.996 35.862v-8.965h-9v8.965h9zm-18 107.593h18v-35.864h-9v26.898h-9v8.966zm27-161.387v-8.966h-9v8.966h9zm0-394.5v-8.966h-9v8.966h9zm71.996 466.228v-8.966h-26.996v8.966h26.996zm-8.996 17.932h-18c-.001 0 .002 8.968-.001 8.966h-36v17.93h45v8.967h17.997v-26.897h-8.996v-8.966zm-98.999 53.794V957.94h8.998v-8.965h18.002v17.93h9V940.01h-9v-8.967h-9.001v-8.965h-9v-17.931h-27v89.657h18.001zm53.998 17.933v-8.966h-9v8.966h9zm-17.999-98.625v17.93h18v8.968h9v-26.898h-27zm26.999-170.352v-17.932h-9v17.932h9zm44.997 152.419v-8.965h-26.996v8.965h26.996zm-62.996 98.625h35.999v-8.965h-17.998v-8.966h-9.002v8.966h-9v8.965zm62.996 0v-8.965h-8.995v8.965h8.995zm0 197.25v-8.965h-26.996v8.965h26.996zm-8.996 143.456h-18c-.001 0 .002 8.968-.001 8.966h-36v17.932h45v8.965h17.997v-26.897h-8.996v-8.966zm8.996-17.932v-8.966h-26.996v8.966h26.996zm-62.996 71.728h35.999v-8.967h-17.998v-8.966h-9.002v8.966h-9v8.967zm-9-80.694v17.931h18v8.967h9v-26.898h-27zm71.996-17.933v-8.965h-26.996v8.965h26.996zM404.563 760.69c-.002.002 0-8.965-.001-8.965h-8.999v17.93h9v8.967h9V760.69h-9zm9 358.637h-9.001v-8.966h-8.999v17.931h35.996v-8.965h-8.996v-8.966h8.996v-17.932h-17.997v26.898zm17.996 35.863v-17.932h-8.995v17.932h8.995zm-26.996 0c-.002.002 0-8.965-.001-8.965h-8.999v17.932h9v8.965h9v-17.932h-9zm-18.001-17.931v-17.932h-9v17.932h9zm36-986.251h-18s.003 8.968 0 8.967h-36v17.93h45v8.966h17.997v-26.896h-8.996v-8.967zm8.997 215.182v-17.932h-8.995v17.932h8.995zm-26.996 0c-.002.002 0-8.965-.001-8.965h-8.999v17.93h9v8.966h9v-17.93h-9zm26.996 35.863v-8.965h-26.996v8.965h26.996zm-44.997-53.794v-17.932h-9v17.932h9zm44.997 152.419v-8.965h-26.996v8.965h26.996zM359.563 124.11v17.93h18v8.967h9V124.11h-27zm71.996 8.966v-8.966h-26.996v8.966h26.996zm-107.995 71.726V168.94h8.998v-8.965h18.002v17.93h9v-26.897h-9v-8.966h-9.001v-8.965h-9v-17.932h-27v89.658h18.001zM431.559 760.69v-17.932h-8.995v17.932h8.995zm-17.997-430.363h-9v-8.966h-8.999v17.931h35.996v-8.965h-8.996v-8.966h8.996V303.43h-17.997v26.898zm-36-107.591v-8.966h-9v8.966h9zm-53.998 376.567V563.44h8.998v-8.965h18.002v17.93h9v-26.897h-9v-8.966h-9.001v-8.965h-9v-17.932h-27v89.658h18.001zm53.998 17.933v-8.966h-9v8.966h9zm36 107.59h-9v-8.965h-8.999v17.931h35.996v-8.965h-8.996v-8.966h8.996V697.93h-17.997v26.898zm17.997 71.727v-8.965h-26.996v8.965h26.996zm-71.996-277.942v17.93h18v8.967h9V518.61h-27zm9 80.692h35.999v-8.965h-17.998v-8.966h-9.002v8.966h-9v8.965zm54-53.795h-18c-.001 0 .002 8.968-.001 8.967h-36v17.93h45v8.967h17.997v-26.897h-8.996v-8.967zm8.996 53.795v-8.965h-8.995v8.965h8.995zm0-71.726v-8.966h-26.996v8.966h26.996z" fill="#0E0F0F"/></g></g></svg>