<svg width="650" height="280" viewBox="0 0 650 280" xmlns="http://www.w3.org/2000/svg" xmlns:xlink="http://www.w3.org/1999/xlink"><defs><path id="a" d="M0 0h650v280H0z"/></defs><g fill="none" fill-rule="evenodd"><mask id="b" fill="#fff"><use xlink:href="#a"/></mask><use fill="#FFF" xlink:href="#a"/><g mask="url(#b)"><path fill="#FFF" d="M-.495 1154.79V-85.478h849.16V1154.79z"/><path d="M353.316 562.84v-28.186h-14.153v28.186h14.153zm14.153-28.188h28.305V492.37h-14.153v14.095h-14.152v28.187zm-28.306-84.563v28.188h14.152v-28.188h-14.152zm14.152-42.282V379.62h-14.153v28.187h14.153zm155.323 732.885v-14.095H480.69v14.095h27.947zM353.315 1027.94v-28.187h-14.153v28.187h14.153zm-14.152 42.282v28.188h14.152v-28.188h-14.152zm28.306 84.563h28.305v-42.28h-14.153v14.093h-14.152v28.187zM353.316-57.293v-28.178h-14.153v28.178h14.153zM494.843 379.62H480.69v42.282h14.154v14.093h13.794v-42.282h-13.795V379.62zm13.795-239.597h-42.1v70.47h-14.153v28.188H424.08v84.564h14.153v14.093h42.459V309.15h27.947V140.023zM494.843-29.104H480.69V-57.29h-42.458V83.647h28.307V27.27h14.15V13.177h27.949V-15.01h-13.795v-14.094zm13.795-28.19v-14.093h-13.794v14.094h13.794zm0 817.45h-42.1v70.47h-14.153v28.188H424.08v84.564h14.153v14.093h42.459v-28.188h27.947V760.156zm0-197.315v-14.095h-13.794v14.095h13.794zm-13.795 436.912H480.69v42.282h14.154v14.093h13.794v-42.28h-13.795v-14.095zM438.232-71.387V-85.47h-28.306v14.084h28.306zm56.61 662.416H480.69v-28.187h-42.458V703.78h28.307v-56.377h14.15V633.31h27.949v-28.188h-13.795V591.03zM353.316 957.471h56.611v-28.188h-14.152v14.095h-42.459v14.093zm56.611-704.696h-14.152v14.093h-42.459v14.095h-14.152v14.093h28.306v-14.093h42.457v-28.188zm-28.305 98.657H367.47v126.845h28.305v-14.094h14.152v84.563h28.306v-28.188h28.307v-42.281h14.15v-14.094h-28.305v-28.186h-14.152v-28.19h-28.306v28.19h-14.152v-42.284h28.305V379.62h28.305v-14.094H424.08v-14.094h-14.153v28.188h-28.305v-28.188zm42.458-169.126h-28.305v42.281h14.152v-28.189h14.153v-14.092zm-70.764 155.032h56.611V309.15h-14.152v14.095h-42.459v14.093zm141.528 28.188V351.43H466.54v14.095h28.304zM409.926-43.197v-14.094h-28.305v14.094h28.305zM339.163-.917h14.152v14.094h-14.152v14.094h28.306v14.095h42.457V27.27h-14.152V13.177h28.305V-15.01h-56.61v-14.094h-14.154v14.094h-14.152V-.916zm155.68 986.576v-14.094h-28.304v14.094h28.304zm-155.68-761.072h42.458v-56.376h70.763v-28.188h-14.152v-28.189H381.62V97.741h42.458V69.553h-28.305V55.46H381.62v14.094h-28.306v126.845h-14.152v28.19zM480.69 97.741v14.093h27.948V55.46h-13.794v42.282H480.69zm-70.764 775.167h-14.152v14.094h-42.459v14.094h-14.152v14.094h28.306v-14.094h42.457v-28.188zm-28.305 98.657h-14.152v126.845h28.305v-14.093h14.152v70.472h28.306v-14.097h28.307v-42.282h14.15v-14.093h-28.305v-28.187h-14.152v-28.19h-28.306v28.19h-14.152v-42.283h28.305v-14.094h28.305v-14.094H424.08v-14.094h-14.153v28.188h-28.305v-28.188zm42.458-169.126h-28.305v42.281h14.152v-28.189h14.153V802.44zm84.559-281.881v-14.095H480.69v14.095h27.947zm-98.712 56.378v-14.094h-28.305v14.094h28.305zm-70.763 42.28h14.152v14.095h-14.152v14.093h28.306V661.5h42.457v-14.095h-14.152v-14.093h28.305v-28.188h-56.61V591.03h-14.154v14.094h-14.152v14.094zm141.527 98.658v14.094h27.948v-56.376h-13.794v42.282H480.69zM339.163 844.72h42.458v-56.375h70.763v-28.19h-14.152v-28.187H381.62v-14.094h42.458v-28.188h-28.305v-14.094H381.62v14.094h-28.306v126.845h-14.152v28.19zm452.89-197.31v56.376h56.613V421.909H735.44v56.375h-56.613V760.16h56.613V647.41h56.612zm56.613-338.258v-56.37h-56.613v56.37h56.613zm0 676.512V816.537H735.44v112.75h-56.613v112.752h113.225v-56.375h56.613zm0-902.014H735.44V27.274h-56.613v169.127h169.838V83.65zm0-112.75v-56.371H735.44v56.37h113.225zM508.638 421.894h85.276V365.52h-56.612v-28.19h-28.664v84.563zm.112 140.942h141.776v-56.378h-28.307v-56.376H508.638l.112 112.754zm56.857-422.82V111.83h-56.612v28.188h56.612zm0 535.571v-56.379h28.307v-28.185h-56.612v84.564h28.305zM537.302-57.301v-28.171h-28.665v28.171h28.665zm84.917 140.94V27.262h56.601V-85.471H565.607v169.11h56.612zm56.601 310.067V111.83h-56.6v281.877h56.6zm-141.518-112.75v-28.189h56.612v-56.375h-85.276v112.752h56.97v-28.189h-28.306zm56.612 422.819V872.9h28.305v28.188h56.601v-253.69h-28.292v56.376h-56.614zM537.303 55.45v-84.563h-28.665V55.45h28.665zm-.001 676.511v28.188h-28.664v28.188h56.97v-56.376h-28.306zm113.224 422.816v-56.372h-28.307v-56.378h-56.612v56.378h-28.305v-84.567h56.612v-28.187h56.612v-28.188h-56.612v-28.187h-28.307v56.375h-56.97v169.138l141.889-.012zM537.302 844.714V872.9h-28.664v28.188h56.97v-56.375h-28.306zM144.568-22.054h3.538v-10.57h-3.538v7.047h-10.614v10.57h-3.54v-3.523h-3.537v10.57h3.539v3.524h3.538v-7.047h3.538v-3.524h7.076v-7.047zM95.034-64.336h-3.538v7.048h10.614v-14.094h17.69v-7.048h-3.537v-7.047H95.034v21.141zm17.69-3.523h-7.076v10.571h3.538v-7.048h3.538v-3.523zm-3.538 24.664v-7.046h-3.538v3.523H95.034v3.523h-7.077v3.524h10.615v-3.524h10.614zm0 7.048h-3.538v3.523H95.034v3.524h14.152v-7.047zm-35.38-21.141v-3.523h-3.538v3.523H66.73v3.522h-7.077v3.525h10.615v14.094H66.73v3.523h7.076v-3.523h3.538v-10.571h14.152v-7.048H77.344v-3.522h-3.538zm74.3 56.375h10.614v14.094h10.615V-4.436h-3.539V-7.96h-3.538v-3.524h-14.152v10.57zm7.076-28.187v-3.524h-3.538v7.047h3.538v3.523h3.538V-29.1h-3.538zm3.538-14.095h-3.538v-3.523h-3.538v7.047h14.152v-3.524h-3.538v-3.523h7.077v-7.047H158.72v10.57zM169.335-29.1v-7.047h-7.076v7.047h7.076zm-3.539 14.093v-3.523h-10.614v3.523h10.614zM87.957-29.1H84.42v3.523h-3.537v3.523h-7.076v3.524h14.151V-29.1zM80.882 6.134h14.152V-.913h-3.538v3.524h-3.539V-7.96H84.42v-3.524h-3.537v3.524h-3.538v7.046h7.075V2.61h-3.537v3.523zM66.73-85.476v7.046h-3.54v-7.047h-3.537v7.047h-7.076v7.047c2.655.002 15.333-.001 17.69 0v3.523h3.539v-3.522h6.991v3.522h7.16v-17.617H66.73zm3.538 66.946v-7.047H66.73v7.047h3.538zM49.038-7.96v3.524h7.077V-7.96h7.076v-3.524H52.577v3.524h-3.538zm-7.075 0H31.348V2.61h3.538V-.912h7.077v-7.046zm10.614-56.376v-3.523h-17.69v7.047h14.152v3.524H63.19v-3.524h-7.076v-3.524h-3.538zM27.81-46.718v3.523h14.153v7.048h10.614v7.047h7.076v14.093h3.538v-17.617h-3.538v-7.047h-3.538v-7.047H45.5v-3.523h7.076v-3.524H41.963v3.524h-3.538v3.523H27.81zM13.657-7.959H27.81v-7.048h14.153v-3.523h10.614v-3.524h-3.538v-3.523H45.5V-29.1h-3.538v-3.524h-7.077v-3.523H24.272v-3.524h-7.076v-3.524h-3.539v-3.523H10.12v-3.523H3.043V2.61h10.614V-7.96zM49.04-81.953v-3.524H34.886v10.57h7.077v-7.045l7.076-.001zM31.35-50.241v-7.047h-3.54v-3.523H13.657v3.523h7.077v7.047h10.614zM20.733-64.336h7.076V-78.43h-7.076v3.524h3.538v7.047h-3.538v3.523zm-3.538-10.57v-10.57H10.12v10.57h7.076zM6.581-71.383v-7.047H-.495v10.57h7.076v-3.523zm0 14.095v-7.048H3.043v7.048H-.495v3.522H10.12v-3.522H6.581zm95.53 38.758v-7.047h-3.539v31.71h7.076V2.612h3.538v21.14h7.077v-7.046h7.077V6.134h3.537V2.61H119.8v-7.047h-3.538v-7.047h-7.077v7.047h-3.538v-10.571h7.076v-3.523h7.077v-3.524h-7.077v-3.523h-3.538v7.047h-7.076zm28.304-3.524v-3.523h-7.076v3.523h7.076zM98.572 20.228h7.076V9.658h-3.538v3.523h-3.538v7.047zm-17.69 7.047h14.152v-7.047h-3.538v-3.523H84.42V13.18h-7.075V9.657h-7.076V2.611H56.115V-.913h-3.538v3.524h-3.538v3.523H45.5v3.523h-7.076v3.524h-7.077v7.047H27.81v3.524h14.153v3.523h7.076v-3.523h7.076v10.57h7.076v3.524h17.69V27.275zM27.81 58.985V51.94h-7.076v7.047h7.076zm0 10.572v-3.524H17.196v3.524H27.81zM155.182 13.18V9.657h-3.538V6.134h-3.538v3.523h-14.152v3.524h-7.077v3.524h21.23v7.047h-3.539v3.523h7.076V13.18h3.538zm-17.69 24.665h7.076v3.523h3.538V30.8h-10.614v7.047zm28.304-14.094v-3.524h-10.614v3.524h10.614zm3.54 10.57v-3.524h-14.154v3.524h14.153zm-3.54 28.188v3.523h-10.614v3.524h14.153v-10.57h-7.077v3.524h3.538zm-21.228-7.048v3.524h-3.538v3.524h14.152v-3.524h-7.076v-3.524h-3.538zm10.614-10.57H141.03v7.047h17.69v3.523h7.076V51.94h3.54v-7.047h-7.078V41.37h-7.076v3.523zm-21.228 10.57h-3.538v10.571h-3.54v3.524h7.078V55.462zm-17.691 7.048h7.077V48.416h3.537v-3.524h7.077v7.047h3.538V41.37h-3.538v-3.523h-3.54v-3.524h-3.537v-7.047h-10.614V62.51zm-3.539-17.618v-7.046H98.572v-3.524h-3.538v3.524h-3.538v3.523h3.538v3.523h-7.077v7.047h3.54v-3.523h7.075v3.523h10.614v-3.523h-3.538v-3.524h7.076zm0 21.141v-7.047h-7.076v-3.524h-3.538v3.524h-7.076v10.57h7.076v-3.523h10.614zM84.42 44.893v-3.524H66.73v3.523h17.69zM66.73 69.556v-3.524h-7.076v3.524h7.076zm-14.152-3.524V62.51H45.5v3.523h7.076zm-10.614-7.047H63.19v-3.524h10.615V51.94h-3.538v-3.523H59.653v-3.524h-7.076v-7.046h-3.538v3.523h-7.076v-7.047h-3.538v-3.524h-7.077v38.759h10.615V58.986zM13.657 6.134H10.12v3.523H3.043V6.134H-.495v10.57h14.152V6.135zm14.153 0V2.61H17.196v3.523H27.81zm-3.538 21.14v-10.57h-7.076v10.57h7.076zm-10.615-3.522v-3.524H6.581v3.524h7.076zM3.043 44.892h3.538v3.524h7.076v-3.524h10.615v-7.046H13.657v-3.524H10.12v-3.524H3.043v3.524H-.495v17.617h3.538v-7.047zm10.614 21.141V62.51h3.54v-3.524h-7.078v-3.524H3.043v7.048H-.495v7.047h7.076v-3.524h7.076zm95.53-35.235v-3.523h-7.077v3.523h7.076zM70.266-.912v-3.524H66.73v3.523h3.538zm81.377-77.518h-7.076v7.048h-7.076v3.523h-3.538v-7.047h3.538v-3.524H123.34v17.619h-3.538v7.046h-7.078v21.141h3.539v3.524h10.615v-7.047h7.076v-10.571h7.076v-7.048h14.152v-7.046h10.614v-3.524h3.54v-10.57h-3.54v-3.524h-7.076v-7.047h-7.076v7.047zM137.492 6.134V2.61h-3.538v3.523h3.538zm10.614-42.282v-7.047h-3.538v7.047h3.538zm-14.152 63.423v-3.523h-3.538v3.523h3.538zM49.039-71.383v-3.523H45.5v3.523h3.538zm35.38 10.57v-3.523h-3.537v3.524h3.537zm-70.762-7.046v-3.523H10.12v3.523h3.538zM84.42-36.148v-3.523h-3.537v3.523h3.537zm60.149 38.759v-7.047h-3.538V2.61h3.538zM95.034-11.483v-7.047h-3.538v7.047h3.538zm-17.69 0v-3.523h-7.076v3.523h7.076zm3.538 63.422v-3.523h-3.538v3.523h3.538zm63.686 17.618v-3.524h-3.538v3.524h3.538zm-56.61-3.524v-7.046h-3.539v7.046h3.538zm-10.614 0V62.51h-3.538v-3.524h-3.538v10.57h10.614v-3.523h-3.538zM27.81 34.322v-3.524h-3.538v3.524h3.538zm116.758 98.658h3.538v-10.57h-3.538v7.046h-10.614v10.571h-3.54v-3.524h-3.537v10.57h3.539v3.524h3.538v-7.047h3.538v-3.523h7.076v-7.047zM95.034 90.698h-3.538v7.047h10.614V83.651h17.69v-7.048h-3.537v-7.046H95.034v21.14zm17.69-3.524h-7.076v10.571h3.538v-7.047h3.538v-3.524zm-3.538 24.665v-7.047h-3.538v3.523H95.034v3.524h-7.077v3.524h10.615v-3.524h10.614zm0 7.047h-3.538v3.524H95.034v3.523h14.152v-7.047zm-35.38-21.14v-3.524h-3.538v3.523H66.73v3.523h-7.077v3.524h10.615v14.094H66.73v3.524h7.076v-3.524h3.538v-10.57h14.152v-7.048H77.344v-3.523h-3.538zm74.3 56.374h10.614v14.095h10.615v-17.618h-3.539v-3.523h-3.538v-3.524h-14.152v10.57zm7.076-28.187v-3.523h-3.538v7.046h3.538v3.524h3.538v-7.047h-3.538zm3.538-14.094h-3.538v-3.524h-3.538v7.048h14.152v-3.524h-3.538v-3.524h7.077v-7.046H158.72v10.57zm10.615 14.094v-7.047h-7.076v7.047h7.076zm-3.539 14.094v-3.523h-10.614v3.523h10.614zm-77.839-14.094H84.42v3.523h-3.537v3.524h-7.076v3.523h14.151v-10.57zm-7.075 35.234h14.152v-7.047h-3.538v3.524h-3.539v-10.57H84.42v-3.524h-3.537v3.524h-3.538v7.046h7.075v3.524h-3.537v3.523zM66.73 69.557v7.046h-3.54v-7.046h-3.537v7.046h-7.076v7.047c2.655.003 15.333 0 17.69.001v3.523h3.539v-3.523h6.991v3.523h7.16V69.557H66.73zm3.538 66.946v-7.047H66.73v7.047h3.538zm-21.23 10.57v3.524h7.077v-3.523h7.076v-3.524H52.577v3.524h-3.538zm-7.075 0H31.348v10.57h3.538v-3.523h7.077v-7.046zm10.614-56.375v-3.524h-17.69v7.047h14.152v3.524H63.19v-3.524h-7.076v-3.523h-3.538zM27.81 108.315v3.524h14.153v7.047h10.614v7.047h7.076v14.094h3.538V122.41h-3.538v-7.047h-3.538v-7.048H45.5v-3.523h7.076v-3.523H41.963v3.523h-3.538v3.523H27.81zm-14.153 38.759H27.81v-7.047h14.153v-3.524h10.614v-3.523h-3.538v-3.524H45.5v-3.523h-3.538v-3.523h-7.077v-3.524H24.272v-3.523h-7.076v-3.524h-3.539v-3.524H10.12v-3.523H3.043v52.852h10.614v-10.57zM49.04 73.08v-3.523H34.886v10.57h7.077V73.08h7.076zm-17.69 31.712v-7.047h-3.54v-3.523H13.657v3.523h7.077v7.047h10.614zM20.733 90.698h7.076V76.603h-7.076v3.524h3.538v7.047h-3.538v3.524zm-3.538-10.571v-10.57H10.12v10.57h7.076zM6.581 83.65v-7.047H-.495v10.571h7.076V83.65zm0 14.095v-7.047H3.043v7.047H-.495v3.523H10.12v-3.523H6.581zm95.53 38.758v-7.047h-3.539v31.711h7.076v-3.523h3.538v21.14h7.077v-7.046h7.077v-10.57h3.537v-3.524H119.8v-7.047h-3.538v-7.047h-7.077v7.047h-3.538v-10.57h7.076v-3.524h7.077v-3.523h-7.077v-3.524h-3.538v7.047h-7.076zm28.304-3.523v-3.524h-7.076v3.524h7.076zm-31.843 42.28h7.076v-10.57h-3.538v3.524h-3.538v7.046zm-17.69 7.047h14.152v-7.047h-3.538v-3.523H84.42v-3.523h-7.075v-3.524h-7.076v-7.047H56.115v-3.524h-3.538v3.524h-3.538v3.523H45.5v3.524h-7.076v3.524h-7.077v7.046H27.81v3.524h14.153v3.523h7.076v-3.523h7.076v10.57h7.076v3.524h17.69v-10.57zM27.81 214.02v-7.047h-7.076v7.047h7.076zm0 10.571v-3.523H17.196v3.523H27.81zm127.372-56.375v-3.524h-3.538v-3.524h-3.538v3.524h-14.152v3.523h-7.077v3.524h21.23v7.047h-3.539v3.523h7.076v-14.093h3.538zm-17.69 24.664h7.076v3.523h3.538v-10.57h-10.614v7.047zm28.304-14.094v-3.524h-10.614v3.524h10.614zm3.54 10.57v-3.524h-14.154v3.524h14.153zm-3.54 28.188v3.524h-10.614v3.523h14.153v-10.57h-7.077v3.523h3.538zm-21.228-7.047v3.523h-3.538v3.524h14.152v-3.524h-7.076v-3.523h-3.538zm10.614-10.57H141.03v7.046h17.69v3.524h7.076v-3.524h3.54v-7.046h-7.078v-3.524h-7.076v3.524zm-21.228 10.57h-3.538v10.57h-3.54v3.524h7.078v-14.094zm-17.691 7.047h7.077V203.45h3.537v-3.523h7.077v7.046h3.538v-10.57h-3.538v-3.523h-3.54v-3.524h-3.537v-7.047h-10.614v35.235zm-3.539-17.617v-7.047H98.572v-3.524h-3.538v3.524h-3.538v3.523h3.538v3.524h-7.077v7.046h3.54v-3.523h7.075v3.523h10.614v-3.523h-3.538v-3.523h7.076zm0 21.14v-7.047h-7.076v-3.523h-3.538v3.523h-7.076v10.571h7.076v-3.523h10.614zm-28.304-21.14v-3.524H66.73v3.524h17.69zM66.73 224.59v-3.523h-7.076v3.523h7.076zm-14.152-3.523v-3.524H45.5v3.524h7.076zm-10.614-7.048H63.19v-3.523h10.615v-3.524h-3.538v-3.523H59.653v-3.523h-7.076v-7.047h-3.538v3.523h-7.076v-7.047h-3.538v-3.524h-7.077v38.759h10.615v-10.57zm-28.306-52.852H10.12v3.524H3.043v-3.524H-.495v10.571h14.152v-10.57zm14.153 0v-3.523H17.196v3.523H27.81zm-3.538 21.141v-10.57h-7.076v10.57h7.076zm-10.615-3.523v-3.524H6.581v3.524h7.076zm-10.614 21.14h3.538v3.524h7.076v-3.523h10.615v-7.047H13.657v-3.524H10.12v-3.524H3.043v3.524H-.495v17.617h3.538v-7.046zm10.614 21.142v-3.524h3.54v-3.524H10.12v-3.523H3.043v7.047H-.495v7.047h7.076v-3.523h7.076zm95.53-35.236v-3.523h-7.077v3.523h7.076zm-38.92-31.71v-3.524H66.73v3.523h3.538zm81.377-77.518h-7.076v7.048h-7.076v3.523h-3.538v-7.047h3.538v-3.524H123.34v17.619h-3.538v7.047h-7.078v21.14h3.539v3.524h10.615v-7.047h7.076v-10.57h7.076v-7.048h14.152V94.22h10.614v-3.523h3.54v-10.57h-3.54v-3.524h-7.076v-7.046h-7.076v7.046zm-14.152 84.564v-3.523h-3.538v3.523h3.538zm10.614-42.282v-7.046h-3.538v7.046h3.538zm-14.152 63.423v-3.523h-3.538v3.523h3.538zM49.039 83.65v-3.523H45.5v3.523h3.538zm35.38 10.571v-3.523h-3.537v3.523h3.537zm-70.762-7.047v-3.523H10.12v3.523h3.538zm70.762 31.712v-3.523h-3.537v3.523h3.537zm60.149 38.758v-7.047h-3.538v7.047h3.538zM95.034 143.55v-7.046h-3.538v7.046h3.538zm-17.69 0v-3.523h-7.076v3.523h7.076zm3.538 63.422v-3.523h-3.538v3.523h3.538zm63.686 17.618v-3.523h-3.538v3.523h3.538zm-56.61-3.523v-7.047h-3.539v7.047h3.538zm-10.614 0v-3.524h-3.538v-3.524h-3.538v10.571h10.614v-3.523h-3.538zM27.81 189.355v-3.524h-3.538v3.524h3.538zm116.758 98.658h3.538v-10.57h-3.538v7.046h-10.614v10.571h-3.54v-3.524h-3.537v10.571h3.539v3.523h3.538v-7.046h3.538v-3.524h7.076v-7.047zM95.034 245.73h-3.538v7.047h10.614v-14.094h17.69v-7.047h-3.537v-7.047H95.034v21.14zm17.69-3.523h-7.076v10.57h3.538v-7.047h3.538v-3.523zm-3.538 24.664v-7.047h-3.538v3.524H95.034v3.523h-7.077v3.524h10.615v-3.524h10.614zm0 7.047h-3.538v3.524H95.034v3.523h14.152v-7.047zm-35.38-21.14v-3.524h-3.538v3.523H66.73v3.523h-7.077v3.524h10.615v14.094H66.73v3.524h7.076v-3.524h3.538v-10.57h14.152V256.3H77.344v-3.523h-3.538zm74.3 56.375h10.614v14.094h10.615V305.63h-3.539v-3.523h-3.538v-3.523h-14.152v10.57zm7.076-28.188v-3.523h-3.538v7.046h3.538v3.524h3.538v-7.047h-3.538zm3.538-14.094h-3.538v-3.523h-3.538v7.047h14.152v-3.524h-3.538v-3.523h7.077v-7.047H158.72v10.57zm10.615 14.094v-7.047h-7.076v7.047h7.076zm-3.539 14.094v-3.523h-10.614v3.523h10.614zm-77.839-14.094H84.42v3.523h-3.537v3.524h-7.076v3.523h14.151v-10.57zM80.882 316.2h14.152v-7.046h-3.538v3.523h-3.539v-10.57H84.42v-3.523h-3.537v3.523h-3.538v7.047h7.075v3.523h-3.537v3.523zM66.73 224.59v7.047h-3.54v-7.047h-3.537v7.047h-7.076v7.046c2.655.003 15.333 0 17.69.001v3.524h3.539v-3.524h6.991v3.524h7.16V224.59H66.73zm3.538 66.946v-7.047H66.73v7.047h3.538zm-21.23 10.571v3.523h7.077v-3.523h7.076v-3.523H52.577v3.523h-3.538zm-7.075 0H31.348v10.57h3.538v-3.523h7.077v-7.047zm10.614-56.376v-3.523h-17.69v7.046h14.152v3.524H63.19v-3.524h-7.076v-3.523h-3.538zM27.81 263.349v3.523h14.153v7.047h10.614v7.047h7.076v14.094h3.538v-17.617h-3.538v-7.047h-3.538v-7.047H45.5v-3.524h7.076v-3.523H41.963v3.523h-3.538v3.524H27.81zm-14.153 38.758H27.81v-7.047h14.153v-3.524h10.614v-3.523h-3.538v-3.524H45.5v-3.523h-3.538v-3.523h-7.077v-3.524H24.272v-3.523h-7.076v-3.524h-3.539v-3.523H10.12v-3.524H3.043v52.852h10.614v-10.57zm35.382-73.994v-3.523H34.886v10.57h7.077v-7.046h7.076zm-17.69 31.712v-7.047H27.81v-3.523H13.657v3.523h7.077v7.047h10.614zm-10.615-14.094h7.076v-14.094h-7.076v3.523h3.538v7.048h-3.538v3.523zm-3.538-10.571v-10.57H10.12v10.57h7.076zm-10.615 3.523v-7.046H-.495v10.57h7.076v-3.524zm0 14.095v-7.047H3.043v7.047H-.495v3.523H10.12v-3.523H6.581zm95.53 38.758v-7.047h-3.539V316.2h7.076v-3.523h3.538v21.141h7.077v-7.047h7.077v-10.57h3.537v-3.524H119.8v-7.047h-3.538v-7.046h-7.077v7.046h-3.538v-10.57h7.076v-3.524h7.077v-3.523h-7.077v-3.524h-3.538v7.047h-7.076zm28.304-3.523v-3.524h-7.076v3.524h7.076zm-31.843 42.282h7.076v-10.57h-3.538v3.523h-3.538v7.047zm-17.69 7.046h14.152v-7.046h-3.538v-3.524H84.42v-3.523h-7.075v-3.523h-7.076v-7.048H56.115v-3.523h-3.538v3.523h-3.538v3.523H45.5v3.525h-7.076v3.523h-7.077v7.047H27.81v3.523h14.153v3.523h7.076v-3.523h7.076v10.57h7.076v3.524h17.69v-10.57zM27.81 369.053v-7.047h-7.076v7.047h7.076zm0 10.57V376.1H17.196v3.523H27.81zm127.372-56.375v-3.523h-3.538V316.2h-3.538v3.525h-14.152v3.522h-7.077v3.524h21.23v7.047h-3.539v3.523h7.076v-14.093h3.538zm-17.69 24.664h7.076v3.524h3.538v-10.571h-10.614v7.047zm28.304-14.094v-3.523h-10.614v3.523h10.614zm3.54 10.57v-3.522h-14.154v3.523h14.153zm-3.54 28.189v3.523h-10.614v3.523h14.153v-10.57h-7.077v3.524h3.538zm-21.228-7.048v3.524h-3.538v3.524h14.152v-3.524h-7.076v-3.524h-3.538zm10.614-10.57H141.03v7.047h17.69v3.523h7.076v-3.523h3.54v-7.047h-7.078v-3.523h-7.076v3.523zm-21.228 10.57h-3.538v10.57h-3.54v3.524h7.078V365.53zm-17.691 7.048h7.077v-14.095h3.537v-3.523h7.077v7.047h3.538v-10.57h-3.538v-3.524h-3.54v-3.523h-3.537v-7.048h-10.614v35.236zm-3.539-17.618v-7.047H98.572v-3.523h-3.538v3.523h-3.538v3.524h3.538v3.523h-7.077v7.047h3.54v-3.524h7.075v3.524h10.614v-3.524h-3.538v-3.523h7.076zm0 21.14v-7.046h-7.076v-3.524h-3.538v3.524h-7.076v10.57h7.076V376.1h10.614zM84.42 354.96v-3.523H66.73v3.523h17.69zm-17.69 24.663V376.1h-7.076v3.523h7.076zM52.577 376.1v-3.523H45.5v3.523h7.076zm-10.614-7.047H63.19v-3.524h10.615v-3.523h-3.538v-3.524H59.653v-3.523h-7.076v-7.047h-3.538v3.524h-7.076v-7.047h-3.538v-3.524h-7.077v38.758h10.615v-10.57zM13.657 316.2H10.12v3.525H3.043V316.2H-.495v10.571h14.152v-10.57zm14.153 0v-3.523H17.196v3.523H27.81zm-3.538 21.141v-10.57h-7.076v10.57h7.076zm-10.615-3.523v-3.523H6.581v3.523h7.076zM3.043 354.959h3.538v3.523h7.076v-3.523h10.615v-7.047H13.657v-3.523H10.12v-3.524H3.043v3.524H-.495v17.617h3.538v-7.047zm10.614 21.14v-3.522h3.54v-3.524h-7.078v-3.524H3.043v7.048H-.495v7.046h7.076V376.1h7.076zm95.53-35.234v-3.524h-7.077v3.524h7.076zm-38.92-31.711v-3.524H66.73v3.524h3.538zm81.377-77.517h-7.076v7.047h-7.076v3.524h-3.538v-7.048h3.538v-3.523H123.34v17.618h-3.538v7.047h-7.078v21.14h3.539v3.524h10.615v-7.047h7.076v-10.57h7.076V256.3h14.152v-7.047h10.614v-3.523h3.54v-10.57h-3.54v-3.523h-7.076v-7.047h-7.076v7.047zM137.492 316.2v-3.523h-3.538v3.523h3.538zm10.614-42.281v-7.047h-3.538v7.047h3.538zm-14.152 63.422v-3.523h-3.538v3.523h3.538zm-84.915-98.658v-3.523H45.5v3.523h3.538zm35.38 10.571v-3.523h-3.537v3.523h3.537zm-70.762-7.046v-3.524H10.12v3.524h3.538zm70.762 31.711v-3.523h-3.537v3.523h3.537zm60.149 38.758v-7.047h-3.538v7.047h3.538zm-49.534-14.093v-7.047h-3.538v7.047h3.538zm-17.69 0v-3.524h-7.076v3.524h7.076zm3.538 63.422v-3.524h-3.538v3.524h3.538zm63.686 17.617V376.1h-3.538v3.523h3.538zm-56.61-3.523v-7.047h-3.539v7.047h3.538zm-10.614 0v-3.523h-3.538v-3.524h-3.538v10.57h10.614V376.1h-3.538zM27.81 344.389v-3.523h-3.538v3.523h3.538zm116.758 98.657h3.538v-10.57h-3.538v7.047h-10.614v10.57h-3.54v-3.524h-3.537v10.571h3.539v3.524h3.538v-7.047h3.538v-3.523h7.076v-7.048zm-49.534-42.282h-3.538v7.048h10.614v-14.095h17.69v-7.047h-3.537v-7.047H95.034v21.141zm17.69-3.522h-7.076v10.57h3.538v-7.048h3.538v-3.522zm-3.538 24.663v-7.047h-3.538v3.524H95.034v3.523h-7.077v3.524h10.615v-3.524h10.614zm0 7.048h-3.538v3.523H95.034v3.523h14.152v-7.046zm-35.38-21.141v-3.524h-3.538v3.524H66.73v3.522h-7.077v3.524h10.615v14.095H66.73v3.523h7.076v-3.523h3.538v-10.571h14.152v-7.048H77.344v-3.522h-3.538zm74.3 56.375h10.614v14.094h10.615v-17.617h-3.539v-3.524h-3.538v-3.523h-14.152v10.57zm7.076-28.188v-3.523h-3.538v7.047h3.538v3.523h3.538v-7.047h-3.538zm3.538-14.094h-3.538v-3.523h-3.538v7.047h14.152v-3.524h-3.538v-3.523h7.077v-7.047H158.72v10.57zM169.335 436v-7.046h-7.076V436h7.076zm-3.539 14.095v-3.524h-10.614v3.524h10.614zM87.957 436H84.42v3.524h-3.537v3.523h-7.076v3.523h14.151V436zm-7.075 35.235h14.152v-7.047h-3.538v3.523h-3.539v-10.57H84.42v-3.523h-3.537v3.523h-3.538v7.047h7.075v3.523h-3.537v3.524zm-14.152-91.61v7.046h-3.54v-7.047h-3.537v7.047h-7.076v7.047c2.655.002 15.333-.001 17.69 0v3.524h3.539v-3.524h6.991v3.524h7.16v-17.618H66.73zm3.538 66.945v-7.046H66.73v7.046h3.538zm-21.23 10.571v3.524h7.077v-3.524h7.076v-3.523H52.577v3.523h-3.538zm-7.075 0H31.348v10.57h3.538v-3.523h7.077v-7.047zm10.614-56.376v-3.522h-17.69v7.046h14.152v3.524H63.19v-3.524h-7.076v-3.524h-3.538zM27.81 418.382v3.523h14.153v7.048h10.614v7.046h7.076v14.095h3.538v-17.618h-3.538v-7.047h-3.538v-7.047H45.5v-3.524h7.076v-3.523H41.963v3.523h-3.538v3.524H27.81zM13.657 457.14H27.81v-7.046h14.153v-3.525h10.614v-3.523h-3.538v-3.523H45.5v-3.524h-3.538v-3.523h-7.077v-3.523H24.272v-3.524h-7.076v-3.524h-3.539v-3.523H10.12v-3.524H3.043v52.852h10.614v-10.57zm35.382-73.993v-3.524H34.886v10.57h7.077v-7.046h7.076zm-17.69 31.711v-7.046H27.81v-3.524H13.657v3.524h7.077v7.046h10.614zm-10.615-14.094h7.076V386.67h-7.076v3.523h3.538v7.049h-3.538v3.522zm-3.538-10.57v-10.57H10.12v10.57h7.076zm-10.615 3.523v-7.047H-.495v10.57h7.076v-3.523zm0 14.095v-7.048H3.043v7.048H-.495v3.522H10.12v-3.522H6.581zm95.53 38.757v-7.046h-3.539v31.71h7.076v-3.523h3.538v21.141h7.077v-7.046h7.077v-10.571h3.537v-3.524H119.8v-7.046h-3.538v-7.047h-7.077v7.047h-3.538v-10.57h7.076v-3.525h7.077v-3.523h-7.077v-3.523h-3.538v7.046h-7.076zm28.304-3.523v-3.523h-7.076v3.523h7.076zm-31.843 42.282h7.076v-10.57h-3.538v3.523h-3.538v7.047zm-17.69 7.047h14.152v-7.047h-3.538v-3.523H84.42v-3.524h-7.075v-3.523h-7.076v-7.048H56.115v-3.523h-3.538v3.523h-3.538v3.524H45.5v3.524h-7.076v3.523h-7.077v7.047H27.81v3.523h14.153v3.524h7.076v-3.524h7.076v10.571h7.076v3.524h17.69v-10.571zM27.81 524.086v-7.046h-7.076v7.046h7.076zm0 10.57v-3.523H17.196v3.523H27.81zm127.372-56.375v-3.523h-3.538v-3.524h-3.538v3.524h-14.152v3.522h-7.077v3.525h21.23v7.046h-3.539v3.524h7.076V478.28h3.538zm-17.69 24.665h7.076v3.523h3.538v-10.571h-10.614v7.048zm28.304-14.095v-3.523h-10.614v3.523h10.614zm3.54 10.571V495.9h-14.154v3.523h14.153zm-3.54 28.188v3.523h-10.614v3.523h14.153v-10.57h-7.077v3.524h3.538zm-21.228-7.048v3.524h-3.538v3.524h14.152v-3.524h-7.076v-3.524h-3.538zm10.614-10.57H141.03v7.047h17.69v3.523h7.076v-3.523h3.54v-7.047h-7.078v-3.523h-7.076v3.523zm-21.228 10.57h-3.538v10.571h-3.54v3.523h7.078v-14.094zm-17.691 7.048h7.077v-14.094h3.537v-3.524h7.077v7.047h3.538v-10.57h-3.538v-3.523h-3.54v-3.524h-3.537v-7.047h-10.614v35.235zm-3.539-17.618v-7.046H98.572v-3.524h-3.538v3.524h-3.538v3.523h3.538v3.523h-7.077v7.047h3.54v-3.523h7.075v3.523h10.614v-3.523h-3.538v-3.524h7.076zm0 21.141v-7.047h-7.076v-3.524h-3.538v3.524h-7.076v10.57h7.076v-3.523h10.614zm-28.304-21.14v-3.524H66.73v3.523h17.69zm-17.69 24.662v-3.523h-7.076v3.523h7.076zm-14.152-3.523v-3.523H45.5v3.523h7.076zm-10.614-7.047H63.19v-3.524h10.615v-3.523h-3.538v-3.523H59.653v-3.524h-7.076v-7.046h-3.538v3.523h-7.076v-7.047h-3.538v-3.524h-7.077v38.758h10.615v-10.57zm-28.306-52.852H10.12v3.524H3.043v-3.524H-.495v10.57h14.152v-10.57zm14.153 0v-3.524H17.196v3.524H27.81zm-3.538 21.14v-10.57h-7.076v10.57h7.076zm-10.615-3.523v-3.523H6.581v3.523h7.076zM3.043 509.992h3.538v3.524h7.076v-3.524h10.615v-7.046H13.657v-3.524H10.12v-3.524H3.043v3.524H-.495v17.617h3.538v-7.047zm10.614 21.141v-3.523h3.54v-3.524h-7.078v-3.524H3.043v7.048H-.495v7.046h7.076v-3.523h7.076zm95.53-35.235v-3.523h-7.077v3.523h7.076zm-38.92-31.711v-3.523H66.73v3.523h3.538zm81.377-77.517h-7.076v7.047h-7.076v3.525h-3.538v-7.049h3.538v-3.523H123.34v17.618h-3.538v7.047h-7.078v21.141h3.539v3.523h10.615v-7.046h7.076v-10.571h7.076v-7.048h14.152v-7.046h10.614v-3.524h3.54v-10.57h-3.54v-3.524h-7.076v-7.047h-7.076v7.047zm-14.152 84.564v-3.524h-3.538v3.524h3.538zm10.614-42.282v-7.047h-3.538v7.047h3.538zm-14.152 63.423v-3.524h-3.538v3.524h3.538zm-84.915-98.658v-3.523H45.5v3.523h3.538zm35.38 10.57v-3.523h-3.537v3.524h3.537zm-70.762-7.046v-3.524H10.12v3.524h3.538zm70.762 31.712v-3.524h-3.537v3.524h3.537zm60.149 38.757v-7.046h-3.538v7.046h3.538zm-49.534-14.093v-7.047h-3.538v7.047h3.538zm-17.69 0v-3.523h-7.076v3.523h7.076zm3.538 63.422v-3.523h-3.538v3.523h3.538zm63.686 17.617v-3.523h-3.538v3.523h3.538zm-56.61-3.523v-7.047h-3.539v7.047h3.538zm-10.614 0v-3.523h-3.538v-3.524h-3.538v10.57h10.614v-3.523h-3.538zm-49.534-31.71v-3.524h-3.538v3.523h3.538zm116.758 98.656h3.538v-10.57h-3.538v7.047h-10.614v10.57h-3.54v-3.523h-3.537v10.57h3.539v3.524h3.538v-7.047h3.538v-3.523h7.076v-7.048zm-49.534-42.282h-3.538v7.048h10.614v-14.094h17.69v-7.048h-3.537v-7.047H95.034v21.141zm17.69-3.522h-7.076v10.57h3.538v-7.048h3.538v-3.522zm-3.538 24.664v-7.047h-3.538v3.523H95.034v3.524h-7.077v3.524h10.615v-3.524h10.614zm0 7.047h-3.538v3.523H95.034v3.524h14.152v-7.047zm-35.38-21.141v-3.523h-3.538v3.523H66.73v3.522h-7.077v3.525h10.615v14.094H66.73v3.523h7.076v-3.523h3.538v-10.571h14.152v-7.048H77.344v-3.522h-3.538zm74.3 56.375h10.614v14.094h10.615v-17.617h-3.539v-3.523h-3.538v-3.524h-14.152v10.57zm7.076-28.187v-3.524h-3.538v7.047h3.538v3.523h3.538v-7.046h-3.538zm3.538-14.094h-3.538v-3.524h-3.538v7.048h14.152v-3.524h-3.538v-3.524h7.077v-7.047H158.72v10.571zm10.615 14.094v-7.047h-7.076v7.047h7.076zm-3.539 14.094v-3.524h-10.614v3.524h10.614zm-77.839-14.094H84.42v3.523h-3.537v3.523h-7.076v3.524h14.151v-10.57zm-7.075 35.235h14.152v-7.048h-3.538v3.524h-3.539v-10.57H84.42v-3.524h-3.537v3.524h-3.538v7.046h7.075v3.524h-3.537v3.524zM66.73 534.656v7.047h-3.54v-7.047h-3.537v7.047h-7.076v7.048c2.655.001 15.333-.002 17.69 0v3.523h3.539v-3.523h6.991v3.523h7.16v-17.618H66.73zm3.538 66.947v-7.046H66.73v7.046h3.538zm-21.23 10.57v3.524h7.077v-3.523h7.076v-3.524H52.577v3.524h-3.538zm-7.075 0H31.348v10.57h3.538v-3.523h7.077v-7.046zm10.614-56.376v-3.522h-17.69v7.046h14.152v3.524H63.19v-3.524h-7.076v-3.524h-3.538zM27.81 573.415v3.524h14.153v7.047h10.614v7.047h7.076v14.094h3.538v-17.618h-3.538v-7.046h-3.538v-7.048H45.5v-3.523h7.076v-3.524H41.963v3.524h-3.538v3.523H27.81zm-14.153 38.759H27.81v-7.047h14.153v-3.524h10.614v-3.524h-3.538v-3.523H45.5v-3.523h-3.538v-3.524h-7.077v-3.523H24.272v-3.523h-7.076v-3.524h-3.539v-3.524H10.12v-3.523H3.043v52.852h10.614v-10.57zM49.04 538.18v-3.524H34.886v10.57h7.077v-7.045l7.076-.001zm-17.69 31.712v-7.047h-3.54v-3.523H13.657v3.523h7.077v7.047h10.614zm-10.615-14.095h7.076v-14.094h-7.076v3.524h3.538v7.048h-3.538v3.522zm-3.538-10.57v-10.57H10.12v10.57h7.076zM6.581 548.75v-7.048H-.495v10.571h7.076v-3.523zm0 14.094v-7.048H3.043v7.048H-.495v3.522H10.12v-3.522H6.581zm95.53 38.758v-7.047h-3.539v31.712h7.076v-3.524h3.538v21.14h7.077v-7.046h7.077v-10.57h3.537v-3.524H119.8v-7.047h-3.538v-7.047h-7.077v7.047h-3.538v-10.57h7.076v-3.524h7.077v-3.524h-7.077v-3.523h-3.538v7.047h-7.076zm28.304-3.524v-3.523h-7.076v3.523h7.076zM98.572 640.36h7.076v-10.57h-3.538v3.523h-3.538v7.047zm-17.69 7.047h14.152v-7.047h-3.538v-3.523H84.42v-3.524h-7.075v-3.523h-7.076v-7.047H56.115v-3.524h-3.538v3.524h-3.538v3.524H45.5v3.523h-7.076v3.523h-7.077v7.047H27.81v3.524h14.153v3.523h7.076v-3.523h7.076v10.57h7.076v3.524h17.69v-10.571zM27.81 679.12v-7.047h-7.076v7.047h7.076zm0 10.57v-3.524H17.196v3.524H27.81zm127.372-56.376v-3.523h-3.538v-3.523h-3.538v3.523h-14.152v3.523h-7.077v3.524h21.23v7.047h-3.539v3.523h7.076v-14.094h3.538zm-17.69 24.665h7.076v3.523h3.538v-10.57h-10.614v7.047zm28.304-14.094v-3.524h-10.614v3.524h10.614zm3.54 10.57v-3.523h-14.154v3.523h14.153zm-3.54 28.188v3.523h-10.614v3.524h14.153v-10.57h-7.077v3.523h3.538zm-21.228-7.047v3.524h-3.538v3.523h14.152v-3.523h-7.076v-3.524h-3.538zm10.614-10.57H141.03v7.046h17.69v3.524h7.076v-3.524h3.54v-7.047h-7.078v-3.523h-7.076v3.523zm-21.228 10.57h-3.538v10.57h-3.54v3.524h7.078v-14.094zm-17.691 7.047h7.077v-14.094h3.537v-3.524h7.077v7.047h3.538v-10.57h-3.538v-3.523h-3.54v-3.524h-3.537v-7.047h-10.614v35.235zm-3.539-17.618v-7.046H98.572v-3.524h-3.538v3.524h-3.538v3.523h3.538v3.523h-7.077v7.047h3.54v-3.523h7.075v3.523h10.614v-3.523h-3.538v-3.524h7.076zm0 21.141v-7.046h-7.076v-3.524h-3.538v3.524h-7.076v10.57h7.076v-3.524h10.614zm-28.304-21.14v-3.524H66.73v3.523h17.69zM66.73 689.69v-3.524h-7.076v3.524h7.076zm-14.152-3.524v-3.523H45.5v3.523h7.076zm-10.614-7.046H63.19v-3.524h10.615v-3.524h-3.538v-3.523H59.653v-3.524h-7.076v-7.046h-3.538v3.523h-7.076v-7.047h-3.538v-3.523h-7.077v38.758h10.615v-10.57zm-28.306-52.852H10.12v3.523H3.043v-3.523H-.495v10.57h14.152v-10.57zm14.153 0v-3.524H17.196v3.524H27.81zm-3.538 21.14v-10.57h-7.076v10.57h7.076zm-10.615-3.523v-3.524H6.581v3.524h7.076zm-10.614 21.14h3.538v3.524h7.076v-3.524h10.615v-7.046H13.657v-3.524H10.12v-3.523H3.043v3.523H-.495v17.617h3.538v-7.047zm10.614 21.141v-3.523h3.54v-3.523H10.12v-3.524H3.043v7.047H-.495v7.047h7.076v-3.524h7.076zm95.53-35.234v-3.523h-7.077v3.523h7.076zm-38.92-31.712v-3.523H66.73v3.523h3.538zm81.377-77.517h-7.076v7.048h-7.076v3.524h-3.538v-7.048h3.538v-3.524H123.34v17.619h-3.538v7.046h-7.078v21.141h3.539v3.524h10.615v-7.047h7.076v-10.571h7.076v-7.048h14.152v-7.046h10.614v-3.524h3.54v-10.57h-3.54v-3.524h-7.076v-7.047h-7.076v7.047zm-14.152 84.564v-3.523h-3.538v3.523h3.538zm10.614-42.281v-7.047h-3.538v7.047h3.538zm-14.152 63.422v-3.523h-3.538v3.523h3.538zM49.039 548.75v-3.524H45.5v3.524h3.538zm35.38 10.57v-3.524h-3.537v3.524h3.537zm-70.762-7.047v-3.523H10.12v3.523h3.538zm70.762 31.712v-3.523h-3.537v3.523h3.537zm60.149 38.758v-7.047h-3.538v7.047h3.538zM95.034 608.65v-7.047h-3.538v7.047h3.538zm-17.69 0v-3.523h-7.076v3.523h7.076zm3.538 63.422v-3.523h-3.538v3.523h3.538zm63.686 17.618v-3.524h-3.538v3.524h3.538zm-56.61-3.524v-7.046h-3.539v7.046h3.538zm-10.614 0v-3.523h-3.538v-3.523h-3.538v10.57h10.614v-3.524h-3.538zm-49.534-31.71v-3.524h-3.538v3.523h3.538zm116.758 98.657h3.538v-10.57h-3.538v7.046h-10.614v10.571h-3.54v-3.523h-3.537v10.57h3.539v3.523h3.538v-7.047h3.538v-3.523h7.076v-7.047zm-49.534-42.282h-3.538v7.047h10.614v-14.093h17.69v-7.049h-3.537v-7.046H95.034v21.14zm17.69-3.523h-7.076v10.57h3.538v-7.047h3.538v-3.523zm-3.538 24.664v-7.047h-3.538v3.524H95.034v3.523h-7.077v3.524h10.615v-3.524h10.614zm0 7.047h-3.538v3.524H95.034v3.523h14.152v-7.047zm-35.38-21.14v-3.524h-3.538v3.523H66.73v3.523h-7.077v3.524h10.615v14.094H66.73v3.524h7.076v-3.524h3.538v-10.57h14.152v-7.048H77.344v-3.523h-3.538zm74.3 56.374h10.614v14.095h10.615V770.73h-3.539v-3.523h-3.538v-3.524h-14.152v10.57zm7.076-28.187v-3.523h-3.538v7.046h3.538v3.524h3.538v-7.047h-3.538zm3.538-14.094h-3.538v-3.523h-3.538v7.047h14.152v-3.524h-3.538v-3.523h7.077v-7.047H158.72v10.57zm10.615 14.094v-7.047h-7.076v7.047h7.076zm-3.539 14.094v-3.523h-10.614v3.523h10.614zm-77.839-14.094H84.42v3.523h-3.537v3.524h-7.076v3.524h14.151v-10.571zM80.882 781.3h14.152v-7.048h-3.538v3.524h-3.539v-10.57H84.42v-3.524h-3.537v3.524h-3.538v7.046h7.075v3.524h-3.537v3.524zM66.73 689.69v7.046h-3.54v-7.046h-3.537v7.046h-7.076v7.048c2.655.002 15.333-.002 17.69 0v3.523h3.539v-3.522h6.991v3.522h7.16V689.69H66.73zm3.538 66.947v-7.047H66.73v7.047h3.538zm-21.23 10.57v3.523h7.077v-3.523h7.076v-3.524H52.577v3.524h-3.538zm-7.075 0H31.348v10.57h3.538v-3.524h7.077v-7.046zm10.614-56.376v-3.523h-17.69v7.046h14.152v3.524H63.19v-3.524h-7.076v-3.523h-3.538zM27.81 728.449v3.523h14.153v7.047h10.614v7.047h7.076v14.094h3.538v-17.617h-3.538v-7.047h-3.538v-7.047H45.5v-3.524h7.076v-3.523H41.963v3.523h-3.538v3.524H27.81zm-14.153 38.758H27.81v-7.047h14.153v-3.523h10.614v-3.524h-3.538v-3.524H45.5v-3.523h-3.538v-3.523h-7.077v-3.524H24.272v-3.523h-7.076v-3.524h-3.539v-3.523H10.12v-3.524H3.043v52.852h10.614v-10.57zm35.382-73.994v-3.523H34.886v10.57h7.077v-7.046h7.076zm-17.69 31.712v-7.047H27.81v-3.523H13.657v3.523h7.077v7.047h10.614zM20.733 710.83h7.076v-14.095h-7.076v3.525h3.538v7.047h-3.538v3.523zm-3.538-10.57v-10.57H10.12v10.57h7.076zM6.58 703.783v-7.048H-.495v10.571h7.076v-3.523zm0 14.094v-7.047H3.043v7.047H-.495v3.523H10.12v-3.523H6.581zm95.53 38.759v-7.048h-3.539V781.3h7.076v-3.524h3.538v21.14h7.077v-7.046h7.077V781.3h3.537v-3.524H119.8v-7.047h-3.538v-7.047h-7.077v7.047h-3.538v-10.57h7.076v-3.523h7.077v-3.524h-7.077v-3.524h-3.538v7.048h-7.076zm28.304-3.524v-3.523h-7.076v3.523h7.076zm-31.843 42.281h7.076v-10.57h-3.538v3.524h-3.538v7.046zm-17.69 7.047h14.152v-7.047h-3.538v-3.523H84.42v-3.523h-7.075v-3.524h-7.076v-7.047H56.115v-3.524h-3.538v3.524h-3.538v3.524H45.5v3.523h-7.076v3.524h-7.077v7.046H27.81v3.524h14.153v3.523h7.076v-3.523h7.076v10.57h7.076v3.524h17.69v-10.57zM27.81 834.153v-7.047h-7.076v7.047h7.076zm0 10.57V841.2H17.196v3.523H27.81zm127.372-56.375v-3.524h-3.538v-3.523h-3.538v3.523h-14.152v3.523h-7.077v3.524h21.23v7.047h-3.539v3.523h7.076v-14.093h3.538zm-17.69 24.664h7.076v3.523h3.538v-10.57h-10.614v7.047zm28.304-14.094v-3.524h-10.614v3.524h10.614zm3.54 10.57v-3.523h-14.154v3.524h14.153zm-3.54 28.188v3.524h-10.614v3.523h14.153v-10.57h-7.077v3.523h3.538zm-21.228-7.046v3.523h-3.538v3.523h14.152v-3.523h-7.076v-3.523h-3.538zm10.614-10.571H141.03v7.047h17.69v3.524h7.076v-3.524h3.54v-7.047h-7.078v-3.524h-7.076v3.524zm-21.228 10.57h-3.538v10.57h-3.54v3.524h7.078V830.63zm-17.691 7.047h7.077v-14.094h3.537v-3.523h7.077v7.047h3.538v-10.57h-3.538v-3.524h-3.54v-3.523h-3.537v-7.048h-10.614v35.235zm-3.539-17.617v-7.047H98.572v-3.523h-3.538v3.523h-3.538v3.523h3.538v3.524h-7.077v7.047h3.54v-3.524h7.075v3.524h10.614v-3.524h-3.538v-3.523h7.076zm0 21.14v-7.046h-7.076v-3.523h-3.538v3.523h-7.076v10.57h7.076V841.2h10.614zM84.42 820.06v-3.524H66.73v3.524h17.69zm-17.69 24.663V841.2h-7.076v3.523h7.076zM52.577 841.2v-3.524H45.5v3.524h7.076zm-10.614-7.047H63.19v-3.523h10.615v-3.524h-3.538v-3.524H59.653v-3.523h-7.076v-7.047h-3.538v3.523h-7.076v-7.046h-3.538v-3.524h-7.077v38.758h10.615v-10.57zm-28.306-52.852H10.12v3.523H3.043v-3.523H-.495v10.57h14.152v-10.57zm14.153 0v-3.523H17.196v3.523H27.81zm-3.538 21.14v-10.57h-7.076v10.57h7.076zm-10.615-3.523v-3.524H6.581v3.524h7.076zm-10.614 21.14h3.538v3.524h7.076v-3.523h10.615v-7.047H13.657v-3.523H10.12v-3.524H3.043v3.524H-.495v17.617h3.538v-7.047zM13.657 841.2v-3.524h3.54v-3.523h-7.078v-3.523H3.043v7.046H-.495v7.047h7.076V841.2h7.076zm95.53-35.235v-3.523h-7.077v3.523h7.076zm-38.92-31.712v-3.523H66.73v3.523h3.538zm81.377-77.517h-7.076v7.049h-7.076v3.523h-3.538v-7.047h3.538v-3.525H123.34v17.619h-3.538v7.047h-7.078v21.14h3.539v3.524h10.615v-7.047h7.076v-10.57h7.076v-7.048h14.152v-7.047h10.614v-3.523h3.54v-10.57h-3.54v-3.525h-7.076v-7.046h-7.076v7.046zM137.492 781.3v-3.523h-3.538v3.523h3.538zm10.614-42.28v-7.048h-3.538v7.047h3.538zm-14.152 63.421v-3.523h-3.538v3.523h3.538zm-84.915-98.657v-3.523H45.5v3.523h3.538zm35.38 10.57v-3.523h-3.537v3.523h3.537zm-70.762-7.046v-3.523H10.12v3.523h3.538zM84.42 739.02v-3.523h-3.537v3.523h3.537zm60.149 38.758v-7.047h-3.538v7.047h3.538zm-49.534-14.094v-7.046h-3.538v7.046h3.538zm-17.69 0v-3.523h-7.076v3.523h7.076zm3.538 63.422v-3.523h-3.538v3.523h3.538zm63.686 17.618V841.2h-3.538v3.523h3.538zm-56.61-3.523v-7.047H84.42v7.047h3.538zm-10.614 0v-3.524h-3.538v-3.523h-3.538v10.57h10.614V841.2h-3.538zM27.81 809.489v-3.524h-3.538v3.524h3.538zm116.758 98.658h3.538v-10.571h-3.538v7.046h-10.614v10.571h-3.54v-3.523h-3.537v10.57h3.539v3.523h3.538v-7.046h3.538v-3.524h7.076v-7.046zm-49.534-42.283h-3.538v7.047h10.614v-14.093h17.69v-7.048h-3.537v-7.047H95.034v21.14zm17.69-3.523h-7.076v10.57h3.538v-7.047h3.538v-3.523zm-3.538 24.665v-7.048h-3.538v3.524H95.034v3.524h-7.077v3.523h10.615v-3.523h10.614zm0 7.046h-3.538v3.524H95.034v3.523h14.152v-7.047zm-35.38-21.14v-3.524h-3.538v3.523H66.73v3.523h-7.077v3.524h10.615v14.094H66.73v3.524h7.076v-3.524h3.538v-10.57h14.152v-7.048H77.344v-3.523h-3.538zm74.3 56.375h10.614v14.094h10.615v-17.618h-3.539v-3.523h-3.538v-3.523h-14.152v10.57zm7.076-28.188v-3.523h-3.538v7.046h3.538v3.525h3.538v-7.048h-3.538zm3.538-14.093h-3.538v-3.524h-3.538v7.047h14.152v-3.523h-3.538v-3.524h7.077v-7.047H158.72v10.57zm10.615 14.093v-7.047h-7.076v7.047h7.076zm-3.539 14.094v-3.523h-10.614v3.523h10.614zM87.957 901.1H84.42v3.523h-3.537v3.525h-7.076v3.523h14.151V901.1zm-7.075 35.235h14.152v-7.047h-3.538v3.524h-3.539V922.24H84.42v-3.523h-3.537v3.523h-3.538v7.047h7.075v3.524h-3.537v3.523zM66.73 844.723v7.047h-3.54v-7.047h-3.537v7.047h-7.076v7.047c2.655.002 15.333-.001 17.69.001v3.523h3.539v-3.523h6.991v3.523h7.16v-17.618H66.73zm3.538 66.947v-7.047H66.73v7.047h3.538zm-21.23 10.57v3.523h7.077v-3.523h7.076v-3.523H52.577v3.523h-3.538zm-7.075 0H31.348v10.57h3.538v-3.523h7.077v-7.047zm10.614-56.376v-3.523h-17.69v7.046h14.152v3.524H63.19v-3.524h-7.076v-3.523h-3.538zM27.81 883.482v3.524h14.153v7.046h10.614v7.047h7.076v14.094h3.538v-17.617h-3.538v-7.047h-3.538v-7.047H45.5v-3.524h7.076v-3.523H41.963v3.523h-3.538v3.524H27.81zM13.657 922.24H27.81v-7.047h14.153v-3.523h10.614v-3.523h-3.538v-3.525H45.5V901.1h-3.538v-3.523h-7.077v-3.524H24.272v-3.523h-7.076v-3.523h-3.539v-3.524H10.12v-3.524H3.043v52.853h10.614V922.24zm35.382-73.994v-3.523H34.886v10.57h7.077v-7.046h7.076zm-17.69 31.712v-7.047H27.81v-3.523H13.657v3.523h7.077v7.047h10.614zm-10.615-14.094h7.076V851.77h-7.076v3.524h3.538v7.047h-3.538v3.523zm-3.538-10.57v-10.57H10.12v10.57h7.076zm-10.615 3.523v-7.047H-.495v10.57h7.076v-3.523zm0 14.094v-7.047H3.043v7.047H-.495v3.523H10.12v-3.523H6.581zm95.53 38.759v-7.048h-3.539v31.712h7.076v-3.523h3.538v21.14h7.077v-7.047h7.077v-10.57h3.537v-3.523H119.8v-7.048h-3.538v-7.046h-7.077v7.046h-3.538v-10.57h7.076v-3.523h7.077v-3.523h-7.077v-3.525h-3.538v7.048h-7.076zm28.304-3.523v-3.524h-7.076v3.524h7.076zm-31.843 42.28h7.076v-10.57h-3.538v3.524h-3.538v7.047zm-17.69 7.048h14.152v-7.047h-3.538v-3.524H84.42v-3.523h-7.075v-3.523h-7.076v-7.047H56.115v-3.524h-3.538v3.524h-3.538v3.523H45.5v3.524h-7.076v3.523h-7.077v7.047H27.81v3.523h14.153v3.524h7.076v-3.524h7.076v10.57h7.076v3.524h17.69v-10.57zM27.81 989.186v-7.046h-7.076v7.046h7.076zm0 10.57v-3.523H17.196v3.523H27.81zm127.372-56.375v-3.523h-3.538v-3.524h-3.538v3.524h-14.152v3.522h-7.077v3.524h21.23v7.047h-3.539v3.524h7.076v-14.094h3.538zm-17.69 24.664h7.076v3.524h3.538v-10.57h-10.614v7.046zm28.304-14.094v-3.523h-10.614v3.523h10.614zm3.54 10.57V961h-14.154v3.523h14.153zm-3.54 28.189v3.523h-10.614v3.523h14.153v-10.57h-7.077v3.524h3.538zm-21.228-7.047v3.523h-3.538v3.524h14.152v-3.524h-7.076v-3.523h-3.538zm10.614-10.571H141.03v7.048h17.69v3.523h7.076v-3.523h3.54v-7.048h-7.078v-3.523h-7.076v3.523zm-21.228 10.57h-3.538v10.57h-3.54v3.524h7.078v-14.093zm-17.691 7.048h7.077v-14.095h3.537v-3.523h7.077v7.048h3.538v-10.571h-3.538v-3.524h-3.54v-3.523h-3.537v-7.047h-10.614v35.235zm-3.539-17.618v-7.047H98.572v-3.523h-3.538v3.523h-3.538v3.524h3.538v3.523h-7.077v7.048h3.54v-3.525h7.075v3.525h10.614v-3.525h-3.538v-3.523h7.076zm0 21.14v-7.046h-7.076v-3.523h-3.538v3.523h-7.076v10.57h7.076v-3.523h10.614zm-28.304-21.14v-3.523H66.73v3.523h17.69zm-17.69 24.664v-3.523h-7.076v3.523h7.076zm-14.152-3.523v-3.523H45.5v3.523h7.076zm-10.614-7.047H63.19v-3.523h10.615v-3.523h-3.538v-3.525H59.653v-3.523h-7.076v-7.047h-3.538v3.524h-7.076v-7.047h-3.538v-3.523h-7.077v38.757h10.615v-10.57zm-28.306-52.852H10.12v3.524H3.043v-3.524H-.495v10.57h14.152v-10.57zm14.153 0v-3.523H17.196v3.523H27.81zm-3.538 21.14v-10.57h-7.076v10.57h7.076zm-10.615-3.523v-3.523H6.581v3.523h7.076zM3.043 975.092h3.538v3.523h7.076v-3.523h10.615v-7.047H13.657v-3.523H10.12v-3.523H3.043v3.523H-.495v17.618h3.538v-7.048zm10.614 21.14v-3.522h3.54v-3.524h-7.078v-3.523H3.043v7.047H-.495v7.046h7.076v-3.523h7.076zM109.187 961v-3.524h-7.077V961h7.076zm-38.92-31.712v-3.524H66.73v3.524h3.538zm81.377-77.517h-7.076v7.048h-7.076v3.523h-3.538v-7.047h3.538v-3.524H123.34v17.618h-3.538v7.047h-7.078v21.14h3.539v3.524h10.615v-7.047h7.076v-10.57h7.076v-7.048h14.152v-7.047h10.614v-3.523h3.54v-10.57h-3.54v-3.524h-7.076v-7.047h-7.076v7.047zm-14.152 84.564v-3.523h-3.538v3.523h3.538zm10.614-42.282v-7.046h-3.538v7.046h3.538zm-14.152 63.423v-3.523h-3.538v3.523h3.538zm-84.915-98.658v-3.523H45.5v3.523h3.538zm35.38 10.57v-3.523h-3.537v3.523h3.537zm-70.762-7.046v-3.523H10.12v3.523h3.538zm70.762 31.711v-3.523h-3.537v3.523h3.537zm60.149 38.758v-7.047h-3.538v7.047h3.538zm-49.534-14.093v-7.047h-3.538v7.047h3.538zm-17.69 0v-3.524h-7.076v3.524h7.076zm3.538 63.422v-3.524h-3.538v3.524h3.538zm63.686 17.617v-3.523h-3.538v3.523h3.538zm-56.61-3.523v-7.047h-3.539v7.047h3.538zm-10.614 0v-3.523h-3.538v-3.524h-3.538v10.57h10.614v-3.523h-3.538zM27.81 964.522v-3.523h-3.538v3.523h3.538zm116.758 98.658h3.538v-10.571h-3.538v7.048h-10.614v10.57h-3.54v-3.524h-3.537v10.57h3.539v3.524h3.538v-7.047h3.538v-3.523h7.076v-7.047zm-49.534-42.283h-3.538v7.048h10.614v-14.094h17.69v-7.047h-3.537v-7.048H95.034v21.141zm17.69-3.522h-7.076v10.57h3.538v-7.048h3.538v-3.522zm-3.538 24.664v-7.047h-3.538v3.524H95.034v3.523h-7.077v3.523h10.615v-3.523h10.614zm0 7.047h-3.538v3.523H95.034v3.523h14.152v-7.046zm-35.38-21.141v-3.524h-3.538v3.524H66.73v3.523h-7.077v3.524h10.615v14.094H66.73v3.523h7.076v-3.523h3.538v-10.57h14.152v-7.048H77.344v-3.523h-3.538zm74.3 56.376h10.614v14.093h10.615v-17.617h-3.539v-3.524h-3.538v-3.523h-14.152v10.57zm7.076-28.189v-3.523h-3.538v7.048h3.538v3.523h3.538v-7.048h-3.538zm3.538-14.093h-3.538v-3.523h-3.538v7.046h14.152v-3.523h-3.538v-3.523h7.077v-7.048H158.72v10.571zm10.615 14.093v-7.046h-7.076v7.046h7.076zm-3.539 14.095v-3.524h-10.614v3.524h10.614zm-77.839-14.095H84.42v3.525h-3.537v3.523h-7.076v3.523h14.151v-10.57zm-7.075 35.236h14.152v-7.047h-3.538v3.523h-3.539v-10.57H84.42v-3.524h-3.537v3.523h-3.538v7.048h7.075v3.523h-3.537v3.524zM66.73 999.756v7.048h-3.54v-7.048h-3.537v7.048h-7.076v7.046c2.655.002 15.333-.001 17.69.001v3.523h3.539v-3.523h6.991v3.523h7.16v-17.618H66.73zm3.538 66.947v-7.046H66.73v7.046h3.538zm-21.23 10.57v3.524h7.077v-3.524h7.076v-3.523H52.577v3.523h-3.538zm-7.075 0H31.348v10.571h3.538v-3.523h7.077v-7.048zm10.614-56.376v-3.522h-17.69v7.046h14.152v3.524H63.19v-3.524h-7.076v-3.524h-3.538zm-24.767 17.619v3.523h14.153v7.047h10.614v7.046h7.076v14.095h3.538v-17.618h-3.538v-7.047h-3.538v-7.046H45.5v-3.524h7.076v-3.524H41.963v3.524h-3.538v3.524H27.81zm-14.153 38.757H27.81v-7.046h14.153v-3.524h10.614v-3.523h-3.538v-3.523H45.5v-3.525h-3.538v-3.523h-7.077v-3.523H24.272v-3.524h-7.076v-3.523h-3.539v-3.523H10.12v-3.524H3.043v52.852h10.614v-10.57zm35.382-73.993v-3.524H34.886v10.571h7.077v-7.047h7.076zm-17.69 31.712v-7.047H27.81v-3.524H13.657v3.524h7.077v7.047h10.614zm-10.615-14.095h7.076v-14.093h-7.076v3.523h3.538v7.048h-3.538v3.522zm-3.538-10.57v-10.57H10.12v10.57h7.076zm-10.615 3.523v-7.046H-.495v10.57h7.076v-3.524zm0 14.095v-7.048H3.043v7.048H-.495v3.523H10.12v-3.523H6.581zm95.53 38.758v-7.046h-3.539v31.71h7.076v-3.523h3.538v21.141h7.077v-7.047h7.077v-10.57h3.537v-3.524H119.8v-7.047h-3.538v-7.047h-7.077v7.047h-3.538v-10.57h7.076v-3.524h7.077v-3.523h-7.077v-3.523h-3.538v7.046h-7.076zm28.304-3.523v-3.523h-7.076v3.523h7.076zm-31.843 42.28h7.076v-10.57h-3.538v3.524h-3.538v7.047zm-17.69 7.048h14.152v-7.047h-3.538v-3.523H84.42v-3.524h-7.075v-3.523h-7.076v-7.047H56.115v-3.523h-3.538v3.523h-3.538v3.524H45.5v3.523h-7.076v3.523h-7.077v7.047H27.81v3.524h14.153v3.523h7.076v-3.523h7.076v10.57h7.076v3.524h17.69v-10.57zM27.81 1144.22v-7.046h-7.076v7.046h7.076zm0 10.57v-3.523H17.196v3.523H27.81zm127.372-56.375v-3.523h-3.538v-3.523h-3.538v3.523h-14.152v3.522h-7.077v3.525h21.23v7.047h-3.539v3.523h7.076v-14.094h3.538zm-17.69 24.665h7.076v3.523h3.538v-10.57h-10.614v7.047zm28.304-14.094v-3.523h-10.614v3.523h10.614zm3.54 10.57v-3.523h-14.154v3.523h14.153zm-3.54 28.188v3.523h-10.614v3.523h14.153v-10.57h-7.077v3.524h3.538zm-21.228-7.047v3.523h-3.538v3.524h14.152v-3.524h-7.076v-3.523h-3.538zm10.614-10.57H141.03v7.047h17.69v3.523h7.076v-3.523h3.54v-7.048h-7.078v-3.523h-7.076v3.523zm-21.228 10.57h-3.538v10.57h-3.54v3.523h7.078v-14.093zm-17.691 7.047h7.077v-14.094h3.537v-3.524h7.077v7.048h3.538v-10.571h-3.538v-3.523h-3.54v-3.524h-3.537v-7.047h-10.614v35.235zm-3.539-17.618v-7.046H98.572v-3.524h-3.538v3.524h-3.538v3.523h3.538v3.523h-7.077v7.048h3.54v-3.524h7.075v3.524h10.614v-3.524h-3.538v-3.524h7.076zm0 21.141v-7.047h-7.076v-3.523h-3.538v3.523h-7.076v10.57h7.076v-3.523h10.614zm-28.304-21.14v-3.524H66.73v3.523h17.69zm-17.691 24.663v-3.523h-7.076v3.523h7.076zm-14.152-3.523v-3.523H45.5v3.523h7.076zm-10.614-7.047H63.19v-3.523h10.615v-3.523h-3.538v-3.524H59.653v-3.524h-7.076v-7.046h-3.538v3.523h-7.076v-7.047h-3.538v-3.523h-7.077v38.757h10.615v-10.57zm-28.306-52.851H10.12v3.523H3.043v-3.523H-.495v10.57h14.152v-10.57zm14.153 0v-3.524H17.196v3.524H27.81zm-3.538 21.14v-10.57h-7.076v10.57h7.076zm-10.615-3.524v-3.523H6.581v3.523h7.076zm-10.614 21.141h3.538v3.524h7.076v-3.524h10.615v-7.046H13.657v-3.524H10.12v-3.523H3.043v3.523H-.495v17.618h3.538v-7.048zm10.614 21.141v-3.523h3.54v-3.524h-7.078v-3.523H3.043v7.047H-.495v7.047h7.076v-3.524h7.076zm95.53-35.234v-3.524h-7.077v3.524h7.076zm-38.92-31.711v-3.524H66.73v3.524h3.538zm81.377-77.517h-7.076v7.047h-7.076v3.524h-3.538v-7.048h3.538v-3.523H123.34v17.617h-3.538v7.047h-7.078v21.141h3.539v3.523h10.615v-7.046h7.076v-10.57h7.076v-7.048h14.152v-7.047h10.614v-3.524h3.54v-10.57h-3.54v-3.523h-7.076v-7.048h-7.076v7.048zm-14.152 84.564v-3.524h-3.538v3.524h3.538zm10.614-42.282v-7.047h-3.538v7.047h3.538zm-14.152 63.422v-3.523h-3.538v3.523h3.538zm-84.915-98.658v-3.523H45.5v3.523h3.538zm35.38 10.57v-3.523h-3.537v3.524h3.537zm-70.762-7.045v-3.524H10.12v3.524h3.538zm70.762 31.71v-3.523h-3.537v3.524h3.537zm60.149 38.758v-7.046h-3.538v7.046h3.538zm-49.534-14.093v-7.047h-3.538v7.047h3.538zm-17.69 0v-3.523h-7.076v3.523h7.076zm3.538 63.423v-3.524h-3.538v3.524h3.538zm63.686 17.617v-3.524h-3.538v3.523h3.538zm-56.61-3.524v-7.047h-3.539v7.047h3.538zm-10.614 0v-3.523h-3.538v-3.524h-3.538v10.57h10.614v-3.523h-3.538zm-49.534-31.71v-3.524h-3.538v3.523h3.538zM197.64 288.01h28.305v-14.094h-7.076v7.048h-21.23v7.046zm-7.077 56.376v7.047h-7.076v-21.14h-7.076v-7.048h-7.076v21.141h7.076v7.047h-7.076v7.047h28.305v-14.094h-7.077zm-14.152 190.267v-7.047h-7.076v7.047h7.076zm0-246.643v7.047h-7.076v14.094h14.152v-21.14h-7.076zm0-63.423v-7.047h-7.076v7.047h7.076zm21.229 98.658V309.15h-7.076v14.095h7.076zm49.534-119.798v-14.095h-7.077V175.26h-28.304v-7.048h21.228v-14.093H218.87v-7.048h-7.076v7.048H197.64v63.422h-7.077v14.095h21.23v-28.188h35.381zm-14.153 14.093v-7.046H218.87v21.141h7.076V217.54h7.076zm-49.534 49.33h21.229v-7.047h21.23v-14.095h-7.077v7.048h-21.23v7.047h-14.152v7.046zm35.382 176.174v-7.047h14.152v-14.094h-28.305v-7.047h-7.076v7.047h-7.077v7.046h7.077v7.048h-14.153v14.093h7.076v-7.046h14.153v7.046h21.23v-7.046h-7.077zm-42.458-7.048v-7.047h-7.077v7.047h7.077zm-7.077-260.737v35.234h14.153v-35.235h-14.153zm56.611 176.174v42.281h14.152v-14.093h14.154V358.48h7.075v-7.047h-14.152V337.34h-7.077v-14.095h-14.152v14.095h-7.076v-21.142h14.152v-7.047h14.153v-7.047h-14.153v-7.047h-7.076v14.094h-14.152v-14.094h-7.077v63.423h14.153v-7.047h7.076zm-56.61 133.892v35.235h14.152v-35.235h-14.153zm14.152-7.046v-14.095h-7.076v14.095h7.076zm21.229-105.706v14.094h14.153v-21.14h-7.076v7.046h-7.077zm21.23 35.235v-7.046h-14.153v7.046h14.152zm-56.612 9.867v4.227-4.227zm28.306-16.914v-14.093h-7.077v-7.047h-14.152v-7.048h-7.077v29.265l.001-1.077h28.305zm-21.23-126.845v-7.047h-7.076v7.047h7.076zm7.076-317.113h21.229v-7.047h21.23v-14.094h-7.077v7.047h-21.23v7.047h-14.152v7.047zm14.153 21.14h28.305V-36.15h-7.076v7.047h-21.23v7.047zm-21.229 0v7.047h-7.076V-.915h14.152v-21.141h-7.076zm14.153-35.234v-14.095h-21.229v14.095h21.229zm-14.153 21.14v-7.046h-7.076v7.047h7.076zm7.076 204.363v-14.094h-7.076v14.094h7.076zm155.675 923.152v-7.047h-7.072v7.047h7.072zM325.012-50.244h-7.076v-7.047h-7.075v14.094h28.302v-7.047h-7.073v-7.047h7.073v-14.094h-14.15v21.141zm-113.22-28.188v-7.04h-21.229v7.04h21.229zm14.152 0v-7.04h-7.075v7.04h7.075zM190.563 34.32v7.047h-7.076V20.225h-7.076v-7.047h-7.076V34.32h7.076v7.047h-7.076v7.047h28.305V34.32h-7.077zm127.373 28.188V55.46h-7.075v-7.047h-7.076v7.047H275.48v7.046h-14.154v7.047h42.46v14.095h-7.079v7.046h14.154V62.507h7.075zm-99.067 70.47v-7.047h14.152v-14.094h-28.305v-7.047h-7.076v7.047h-7.077v7.047h7.077v7.047h-14.153v14.094h7.076v-7.047h14.153v7.047h21.23v-7.047h-7.077zm-42.458-7.048v-7.046h-7.076v7.046h7.076zm49.534-28.187v-7.047h-14.152v7.047h14.152zm0-56.376v42.282h14.152V69.553h14.154v-21.14h7.075v-7.047h-14.152V27.273h-7.077V13.178h-14.152v14.095h-7.076V6.131h14.152V-.915h14.153v-7.048h-14.153v-7.047h-7.076V-.915h-14.152V-15.01h-7.077v63.423h14.153v-7.047h7.076zM197.64 13.178V-.916h-7.076v14.094h7.076zm77.839 77.516v-7.046h-7.076v7.046h7.076zm-70.763-28.187V76.6h14.153V55.46h-7.076v7.047h-7.077zm-14.153 14.095v-7.049h-14.152v-7.046h-7.076v28.187h28.305V76.602h-7.077zm-7.076 500.334h21.229v-7.047h21.23v-14.094h-7.077v7.047h-21.23v7.047h-14.152v7.047zm14.153 366.442v-14.094h-7.076v14.094h7.076zm28.305 28.188v42.282h14.152v-14.094h14.154v-21.141h7.075v-7.047h-14.152v-14.093h-7.077v-14.095h-14.152v14.095h-7.076V936.33h14.152v-7.047h14.153v-7.046h-14.153v-7.047h-7.076v14.093h-14.152V915.19h-7.077v63.422h14.153v-7.047h7.076zm-35.382-7.047v7.047h-7.076v-21.14h-7.076v-7.048h-7.076v21.141h7.076v7.047h-7.076v7.047h28.305v-14.094h-7.077zm14.153 28.188v14.093h14.153v-21.14h-7.076v7.047h-7.077zm-28.305-84.564v7.048h-7.076v14.093h14.152v-21.14h-7.076zm7.076-21.14h21.229v-7.047h21.23v-14.094h-7.077v7.047h-21.23v7.047h-14.152v7.046zm14.153 21.14h28.305V894.05h-7.076v7.047h-21.23v7.046zm-21.23-14.093v-7.047h-7.076v7.047h7.076zm70.763-380.535V499.42h-7.077v-14.094h-28.304v-7.047h21.228v-14.094h-14.15v-7.046h-7.076v7.046H197.64v63.422h-7.077v14.095h21.23v-28.187h35.381zm-77.84 524.294v4.228-4.228zm77.84 95.839v-14.094h-7.077v-14.095h-28.304v-7.046h21.228v-14.095h-14.15v-7.046h-7.076v7.046H197.64v63.422h-7.077v7.05h21.23v-21.143h35.381zm-21.229-105.705v-7.047h-14.152v7.047h14.152zm7.076 119.798v-7.046h-14.15v14.095h7.076v-7.049h7.076zm-56.61 7.047v-7.047h-7.076v7.047h7.076zm162.752 0v-35.234h-14.15v-14.095h14.15v-7.046h-21.226v7.046h-7.076v14.095h-14.154v14.094h-14.151v7.047h-7.076V1126.6h7.076v-7.046H254.25v35.235h-7.077v.001h70.762v-.002h21.227zm-169.829-49.329v35.235h14.153v-35.235h-14.153zm7.077-49.328v-7.047h-7.077v7.047h7.077zm14.153-183.222v-14.094h-21.23v14.094h21.23zm-7.077 225.504v-14.095h-7.076v14.095h7.076zm35.382-35.235v-7.047h14.152v-14.094h-28.305v-7.047h-7.076v7.047h-7.077v7.047h7.077v7.047h-14.153v14.094h7.076v-7.047h14.153v7.047h21.23v-7.047h-7.077zm-21.23-42.282V1006.8h-7.076v-7.047H176.41v-7.047h-7.077v29.264c0-.682 0-1.077.001-1.076h28.305zM176.41 598.078v7.046h-7.076v14.094h14.152v-21.141h-7.076zm14.152 56.375v7.048h-7.076V640.36h-7.076v-7.047h-7.076v21.14h7.076v7.048h-7.076v7.046h28.305v-14.094h-7.077zm35.382 7.048v42.28h14.152v-14.093h14.154v-21.14h7.075V661.5h-14.152v-14.094h-7.077v-14.094h-14.152v14.094h-7.076v-21.142h14.152v-7.046h14.153v-7.047H233.02v-7.048h-7.076v14.095h-14.152v-14.095h-7.077v63.423h14.153V661.5h7.076zm-28.305-63.423h28.305v-14.094h-7.076v7.047h-21.23v7.047zm0 35.235v-14.094h-7.076v14.094h7.076zm-21.229-49.33v-7.046h-7.076v7.047h7.076zm56.61-56.376v-7.045h-14.15v21.14h7.076v-14.095h7.076zm63.686 577.852v-7.046h-7.076v7.046h7.076zM190.564 562.842v-14.095h-21.23v14.095h21.23zm56.61 260.738v-14.095h-7.077v-14.093h-28.304v-7.047h21.228v-14.094H218.87v-7.047h-7.076v7.047H197.64v63.423h-7.077v14.094h21.23V823.58h35.381zm-42.458-140.94v14.094h14.153v-21.141h-7.076v7.048h-7.077zm-21.229 105.705v-14.094h-7.076v14.094h7.076zm-7.076 56.375v-7.046h-7.076v7.046h7.076zm56.61-7.046v-7.047H218.87v21.141h7.076v-14.094h7.076zm-63.687-42.282v35.234h14.153v-35.235h-14.153zm56.611-77.516v-7.047h-14.152v7.047h14.152zm-28.305-7.048v-14.093h-7.077v-7.048h-14.152v-7.046h-7.077v29.264c0-.683 0-1.078.001-1.077h28.305zm-28.306 16.913v4.227-4.227zm49.535 25.369v-7.047h14.152V731.97h-28.305v-7.047h-7.076v7.047h-7.077v7.048h7.077v7.046h-14.153v14.094h7.076v-7.047h14.153v7.047h21.23v-7.047h-7.077zm-42.458-7.047v-7.046h-7.077v7.046h7.077zm14.153-493.288v-14.094h-21.23v14.094h21.23zm77.84 49.329v-7.047H254.25v7.047h14.153zm-35.383-21.14h7.076v7.046h21.23v-14.094h14.153v-21.14h14.151V238.68h28.305v-14.094h21.227v-35.235h-14.15V175.26h14.15v-7.048h-21.226v7.048h-7.076v14.093h-14.154v14.095h-14.151v7.047h-7.076V196.4h7.076v-7.047H254.25v35.235h-7.077v14.095H233.02v42.282zm63.686-239.598V27.272h-7.076v14.094h7.076zm-35.381 133.893h14.154V147.07h-7.077v21.141h-7.077v7.048zm21.23-126.846v-7.046h-7.076v7.046h7.076zM254.25 1091.365v-28.188h7.075v-7.047h14.154v14.094h7.076v-21.14h-7.076v-7.048h-7.077v-7.047h-7.077v-14.094h-21.229v70.47h14.154zm84.912-718.792v-42.28h-7.073v-7.048h-28.305v21.14h21.228v28.188h14.15zm-70.76-63.422h-7.077v21.141h7.077v7.047h7.077v-14.094h7.076v-7.047h14.151v-14.094h7.078v-21.14h-7.078v14.093H275.48v21.14h-7.077v-7.046zm28.304 42.282V337.34h-7.076v14.093h7.076zM268.404-7.963v-7.047H254.25v7.047h14.153zm70.76 70.47V20.225h-7.074v-7.047h-28.305V34.32h21.228v28.188h14.15zm-35.38-98.657v-14.095h-7.076v14.095h7.076zm35.378 197.315v-7.047h-7.072v7.047h7.072zm0-77.517v-7.046h-21.226v7.046h21.226zM317.937-22.056c-.002 0 0-7.047 0-7.047h-7.076v14.093h7.076v7.047h7.076v-14.093h-7.076zM275.479 400.76v-7.047h-7.076v7.047h7.076zM268.403-.915h-7.077v21.14h7.077v7.047h7.077V13.178h7.076V6.131h14.151V-7.963h7.078v-21.14h-7.078v14.093H275.48V6.131h-7.077V-.915zm70.76 7.046V-.915h-21.226V6.13h21.226zm-49.532 155.034h28.305v-7.047h-14.15v-7.048h-7.079v7.048h-7.076v7.047zm49.532-183.221V-36.15h-7.072v14.094h7.072zm-106.142-7.047h7.076v7.047h21.23V-36.15h14.153v-21.141h14.151v-14.095h28.305V-85.47h-70.762v14.086h-14.153v42.282zm63.686 1000.67v-14.094h-7.076v14.093h7.076zm42.456 21.14v-42.282h-7.073v-7.047h-28.305v21.141h21.228v28.188h14.15zm-28.302-591.946v-28.188h7.075v-7.047h-7.075v-7.046h-7.076v7.046H275.48v7.047h-14.154v7.048h42.46v14.093h-7.079v7.047h14.154zm-42.458 528.523h-7.077v21.141h7.077v7.047h7.077v-14.094h7.076v-7.047h14.151v-14.093h7.078v-21.141h-7.078v14.094H275.48v21.14h-7.077v-7.047zm42.458 91.61v-28.187h7.075v-7.048h-7.075v-7.046h-7.076v7.046H275.48v7.047h-14.154v7.048h42.46v14.094h-7.079v7.047h14.154zm-49.535 84.564h14.154v-28.187h-7.077v21.14h-7.077v7.047zm-28.305-204.361h7.076v7.046h21.23V894.05h14.153v-21.141h14.151v-14.095h28.305V844.72h21.227v-35.235h-14.15v-14.093h14.15v-7.047h-21.226v7.047h-7.076v14.093h-14.154v14.095h-14.151v7.047h-7.076v-14.094h7.076v-7.048H254.25v35.236h-7.077v14.094H233.02v42.282zm42.458 119.798v-7.047h-7.076v7.047h7.076zm7.077-42.282v-7.047h-7.076v7.047h7.076zm-14.152-56.375v-7.047H254.25v7.047h14.153zm0-310.068v-7.047H254.25v7.047h14.153zm-7.078-126.845h14.154v-28.187h-7.077v21.14h-7.077v7.047zm7.077 133.893h-7.077v21.14h7.077v7.047h7.077v-14.093h7.076v-7.048h14.151v-14.093h7.078v-21.14h-7.078v14.092H275.48v21.141h-7.077v-7.046zM233.02 591.03h7.076v7.047h21.23v-14.094h14.153v-21.14h14.151v-14.096h28.305v-14.093h21.227v-35.235h-14.15v-14.094h14.15v-7.047h-21.226v7.047h-7.076v14.094h-14.154v14.095h-14.151v7.047h-7.076v-14.095h7.076v-7.047H254.25v35.236h-7.077v14.093H233.02v42.282zm63.686 70.47v-14.094h-7.076V661.5h7.076zm14.154 49.328v-28.187h7.075v-7.048h-7.075v-7.047h-7.076v7.047H275.48v7.047h-14.154v7.047h42.46v14.094h-7.079v7.047h14.154zm28.302-28.187v-42.282h-7.073v-7.047h-28.305v21.14h21.228v28.189h14.15zm-63.684 28.186v-7.046h-7.076v7.046h7.076zm-14.153 84.565h14.154v-28.188h-7.077v21.141h-7.077v7.047zm21.23-126.846V661.5h-7.076v7.046h7.076zm0-310.066v-7.047h-7.076v7.047h7.076zm56.607 366.442v-7.046h-21.226v7.046h21.226zm-7.073 14.095h-14.153s.002 7.048 0 7.046H289.63v14.094h35.382v7.047h14.15v-21.14h-7.073v-7.047zm-77.84 42.28V753.11h7.076v-7.047h14.154v14.094h7.076v-21.14h-7.076v-7.048h-7.077v-7.047h-7.077V710.83h-21.229v70.469h14.154zm42.457 14.095v-7.047h-7.076v7.047h7.076zm-14.151-77.516v14.092h14.151v7.049h7.078v-21.141h-21.23zm21.227-133.893V569.89h-7.076v14.094h7.076zm35.38 119.798v-7.046h-21.226v7.046h21.226zm-49.532 77.517h28.305v-7.047h-14.15v-7.047h-7.079v7.047h-7.076v7.047zm49.532 0v-7.047h-7.072v7.047h7.072zm0 155.033v-7.047h-21.226v7.047h21.226zm-7.073 112.752h-14.153s.002 7.049 0 7.047H289.63v14.094h35.382v7.047h14.15v-21.141h-7.073v-7.047zm7.073-14.094v-7.047h-21.226v7.047h21.226zm-49.532 56.376h28.305v-7.048h-14.15v-7.046h-7.079v7.046h-7.076v7.048zm-7.075-63.423v14.094h14.151v7.047h7.078v-21.14h-21.23zm56.607-14.095v-7.046h-21.226v7.046h21.226zm-21.226-415.77c-.002.001 0-7.047 0-7.047h-7.076v14.093h7.076v7.048h7.076v-14.094h-7.076zm7.076 281.879h-7.077v-7.047h-7.075v14.093h28.302v-7.046h-7.073v-7.047h7.073v-14.094h-14.15v21.14zm14.15 28.187V894.05h-7.072v14.094h7.072zm-21.226 0c-.002.002 0-7.046 0-7.046h-7.076v14.094h7.076v7.047h7.076v-14.095h-7.076zm-14.154-14.093v-14.094h-7.076v14.094h7.076zm28.307-775.167h-14.153s.002 7.048 0 7.047H289.63v14.094h35.382v7.046h14.15v-21.14h-7.073v-7.047zm7.073 169.127v-14.094h-7.072v14.094h7.072zm-21.226 0c-.002.002 0-7.046 0-7.046h-7.076v14.093h7.076v7.047h7.076V288.01h-7.076zm21.226 28.188v-7.047h-21.226v7.047h21.226zm-35.38-42.281v-14.094h-7.076v14.094h7.076zm35.38 119.797v-7.046h-21.226v7.046h21.226zM282.556 97.743v14.092h14.151v7.048h7.078v-21.14h-21.23zm56.607 7.046v-7.046h-21.226v7.046h21.226zm-84.912 56.376v-28.188h7.075v-7.047h14.154v14.094h7.076v-21.141h-7.076v-7.047h-7.077v-7.047h-7.077V90.695h-21.229v70.47h14.154zm84.912 436.912v-14.094h-7.072v14.094h7.072zm-14.15-338.254h-7.077v-7.047h-7.075v14.093h28.302v-7.046h-7.073v-7.047h7.073v-14.094h-14.15v21.14zm-28.306-84.564v-7.047h-7.076v7.047h7.076zM254.251 471.23v-28.187h7.075v-7.047h14.154v14.093h7.076v-21.14h-7.076v-7.047h-7.077v-7.047h-7.077v-14.094h-21.229v70.47h14.154zm42.456 14.094v-7.046h-7.076v7.046h7.076zm28.306 84.564h-7.077v-7.047h-7.075v14.094h28.302v-7.047h-7.073v-7.047h7.073v-14.094h-14.15v21.141zm14.15 56.375v-7.046h-21.226v7.046h21.226zM282.556 407.81v14.093h14.151v7.047h7.078v-21.14h-21.23zm7.075 63.422h28.305v-7.047h-14.15v-7.046h-7.079v7.046h-7.076v7.047zm42.459-42.282h-14.153s.002 7.049 0 7.048H289.63v14.093h35.382v7.048h14.15v-21.141h-7.073v-7.048zm7.073 42.282v-7.047h-7.072v7.047h7.072zm0-56.375v-7.047h-21.226v7.047h21.226z" fill="#0E0F0F"/></g></g></svg>